<svg width="155" height="97" viewBox="0 0 155 97" fill="none" xmlns="http://www.w3.org/2000/svg">
<path d="M132.534 24.8588C129.538 18.694 129.254 12.4846 132.534 6.20833L130.179 3.38513L65.7832 5.50322L68.0016 25.9596L130.335 26.6787L132.531 24.8588H132.534Z" fill="white"/>
<path d="M130.338 27.2945H130.329L67.9958 26.5755C67.6837 26.5727 67.4245 26.3358 67.3883 26.0236L65.1699 5.5673C65.1503 5.3973 65.2061 5.22449 65.3176 5.09629C65.429 4.9653 65.5907 4.89005 65.7635 4.88447L130.159 2.76638C130.346 2.76081 130.533 2.84165 130.653 2.98935L133.007 5.81256C133.166 6.00486 133.197 6.27239 133.08 6.49256C130.017 12.3508 130.02 18.2703 133.088 24.5856C133.214 24.842 133.147 25.1485 132.927 25.3297L130.731 27.1496C130.619 27.2416 130.48 27.2917 130.338 27.2917V27.2945ZM68.5588 25.3492L130.117 26.0599L131.77 24.6915C128.835 18.3762 128.844 12.1891 131.798 6.29191L129.897 4.01215L66.4686 6.09959L68.5588 25.3492Z" fill="black"/>
<path d="M14.2071 1.13318H133.726C135.123 1.13318 136.257 2.26468 136.257 3.66374C136.257 5.0628 135.125 6.19433 133.726 6.19433H78.7785C74.7541 6.19433 71.4933 9.45505 71.4933 13.4794V17.5763C71.4933 21.6007 74.7541 24.8615 78.7785 24.8615H133.726C135.123 24.8615 136.257 25.993 136.257 27.392C136.257 28.7911 135.125 29.9226 133.726 29.9226H14.2071C6.78821 29.9226 0.773926 23.9083 0.773926 16.4894V14.5719C0.773926 7.15303 6.78821 1.13876 14.2071 1.13876V1.13318Z" fill="white"/>
<path d="M133.73 30.5352H14.2078C6.46003 30.5352 0.158691 24.2311 0.158691 16.4861V14.5687C0.158691 6.82088 6.46282 0.519531 14.2078 0.519531H133.727C135.463 0.519531 136.874 1.93254 136.874 3.66603C136.874 5.39953 135.461 6.81253 133.727 6.81253H78.7791C75.1031 6.81253 72.1099 9.80293 72.1099 13.4817V17.5786C72.1099 21.2546 75.1003 24.2478 78.7791 24.2478H133.727C135.463 24.2478 136.874 25.6608 136.874 27.3943C136.874 29.1278 135.461 30.5408 133.727 30.5408L133.73 30.5352ZM14.2106 1.75138C7.14284 1.75138 1.39611 7.5009 1.39611 14.5687V16.4861C1.39611 23.5539 7.14563 29.3034 14.2106 29.3034H133.73C134.783 29.3034 135.642 28.445 135.642 27.3915C135.642 26.338 134.783 25.4797 133.73 25.4797H78.7819C74.4231 25.4797 70.8781 21.9346 70.8781 17.5758V13.4789C70.8781 9.12012 74.4231 5.5751 78.7819 5.5751H133.73C134.783 5.5751 135.642 4.71672 135.642 3.66324C135.642 2.60977 134.783 1.75138 133.73 1.75138H14.2078H14.2106Z" fill="black"/>
<path d="M130.176 15.2826H93.9094C93.5694 15.2826 93.2935 15.0067 93.2935 14.6667C93.2935 14.3267 93.5694 14.0508 93.9094 14.0508H130.176C130.516 14.0508 130.792 14.3267 130.792 14.6667C130.792 15.0067 130.516 15.2826 130.176 15.2826Z" fill="black"/>
<path d="M130.405 20.7419H100.93C100.59 20.7419 100.314 20.466 100.314 20.126C100.314 19.786 100.59 19.5101 100.93 19.5101H130.405C130.745 19.5101 131.021 19.786 131.021 20.126C131.021 20.466 130.745 20.7419 130.405 20.7419Z" fill="black"/>
<path d="M137.165 59.6622H29.2065V33.2139H137.163C133.974 42.1489 133.888 50.9669 137.163 59.6622H137.165Z" fill="white"/>
<path d="M137.166 60.2782H29.2067C28.8667 60.2782 28.5908 60.0023 28.5908 59.6623V33.2139C28.5908 32.8739 28.8667 32.598 29.2067 32.598H137.166C137.366 32.598 137.553 32.6956 137.67 32.86C137.784 33.0244 137.815 33.2334 137.748 33.423C134.585 42.2939 134.582 51.0505 137.745 59.4477C137.818 59.6372 137.79 59.849 137.676 60.0162C137.561 60.1835 137.372 60.281 137.168 60.281L137.166 60.2782ZM29.8254 59.0436H136.285C133.417 50.8833 133.42 42.4081 136.299 33.8298H29.8254V59.0436Z" fill="black"/>
<path d="M42.206 34.5185H137.911C139.062 34.5185 139.995 33.5848 139.995 32.4338C139.995 31.2828 139.062 30.3492 137.911 30.3492H13.7176C8.6592 30.3492 4.55957 34.4488 4.55957 39.5072V53.9047C4.55957 58.963 8.6592 63.0626 13.7176 63.0626H137.908C139.059 63.0626 139.992 62.129 139.992 60.978C139.992 59.827 139.059 58.8933 137.908 58.8933H42.206C38.6331 58.8933 35.7374 55.9977 35.7374 52.4248V40.9871C35.7374 37.4142 38.6331 34.5185 42.206 34.5185Z" fill="white"/>
<path d="M137.907 63.6787H13.7173C8.32726 63.6787 3.94336 59.2947 3.94336 53.9047V39.5072C3.94336 34.1172 8.32726 29.7333 13.7173 29.7333H137.907C139.396 29.7333 140.608 30.9457 140.608 32.4339C140.608 33.9221 139.396 35.1345 137.907 35.1345H42.2057C38.9784 35.1345 36.353 37.7598 36.353 40.9871V52.4249C36.353 55.6522 38.9784 58.2775 42.2057 58.2775H137.91C139.398 58.2775 140.611 59.4898 140.611 60.9781C140.611 62.4663 139.398 63.6787 137.91 63.6787H137.907ZM13.7173 30.9652C9.00728 30.9652 5.1752 34.7972 5.1752 39.5072V53.9047C5.1752 58.6147 9.00728 62.4468 13.7173 62.4468H137.907C138.716 62.4468 139.373 61.7891 139.373 60.9809C139.373 60.1726 138.716 59.5149 137.907 59.5149H42.2057C38.2983 59.5149 35.1184 56.335 35.1184 52.4276V40.9899C35.1184 37.0826 38.2983 33.9026 42.2057 33.9026H137.91C138.718 33.9026 139.376 33.2449 139.376 32.4367C139.376 31.6285 138.718 30.9707 137.91 30.9707H13.7173V30.9652Z" fill="black"/>
<path d="M135.257 40.1093H119.316C118.976 40.1093 118.7 39.8334 118.7 39.4934C118.7 39.1534 118.976 38.8774 119.316 38.8774H135.257C135.597 38.8774 135.873 39.1534 135.873 39.4934C135.873 39.8334 135.597 40.1093 135.257 40.1093Z" fill="black"/>
<path d="M134.92 43.64H85.8244C85.4844 43.64 85.2085 43.3641 85.2085 43.0241C85.2085 42.684 85.4844 42.4081 85.8244 42.4081H134.92C135.26 42.4081 135.536 42.684 135.536 43.0241C135.536 43.3641 135.26 43.64 134.92 43.64Z" fill="black"/>
<path d="M134.92 51.0089H92.6779C92.3379 51.0089 92.062 50.733 92.062 50.3929C92.062 50.0529 92.3379 49.777 92.6779 49.777H134.92C135.26 49.777 135.536 50.0529 135.536 50.3929C135.536 50.733 135.26 51.0089 134.92 51.0089Z" fill="black"/>
<path d="M4.98535 90.0571C8.36873 83.0925 8.69202 76.0721 4.98535 68.982L7.64691 65.791L80.4119 68.185L77.9037 91.3001L7.46854 92.1111L4.98535 90.0571Z" fill="white"/>
<path d="M7.4658 92.7298C7.32088 92.7298 7.18153 92.6796 7.07284 92.5876L4.58965 90.5336C4.36948 90.3525 4.30259 90.0431 4.428 89.7895C7.90893 82.627 7.90893 75.916 4.43636 69.2718C4.3221 69.0516 4.34997 68.7813 4.50883 68.5918L7.17038 65.4007C7.29301 65.2558 7.47695 65.175 7.66368 65.1777L80.4287 67.5718C80.6015 67.5773 80.7631 67.6554 80.8746 67.7836C80.9861 67.9146 81.0418 68.0846 81.0223 68.2546L78.5141 91.3697C78.4806 91.6791 78.2186 91.916 77.9065 91.9215L7.47137 92.7326H7.46301L7.4658 92.7298ZM5.74903 89.8898L7.68597 91.4951L77.3491 90.6925L79.7264 68.7841L7.92565 66.4235L5.72116 69.0684C9.07946 75.7404 9.0906 82.7412 5.74903 89.8926V89.8898Z" fill="black"/>
<path d="M138.69 63.2464H3.63385C2.05642 63.2464 0.774414 64.5256 0.774414 66.1058C0.774414 67.686 2.05363 68.9653 3.63385 68.9653H65.7248C70.2703 68.9653 73.9575 72.6524 73.9575 77.198V81.8271C73.9575 86.3727 70.2703 90.0598 65.7248 90.0598H3.63385C2.05642 90.0598 0.774414 91.3391 0.774414 92.9193C0.774414 94.4995 2.05363 95.7787 3.63385 95.7787H138.69C147.074 95.7787 153.871 88.9813 153.871 80.5981V78.4298C153.871 70.0466 147.074 63.2492 138.69 63.2492V63.2464Z" fill="white"/>
<path d="M138.691 96.3917H3.63404C1.71661 96.3917 0.158691 94.8338 0.158691 92.9164C0.158691 90.9989 1.71661 89.441 3.63404 89.441H65.725C69.9249 89.441 73.339 86.0242 73.339 81.827V77.1979C73.339 72.9979 69.9221 69.5839 65.725 69.5839H3.63404C1.71661 69.5839 0.158691 68.026 0.158691 66.1085C0.158691 64.1911 1.71661 62.6332 3.63404 62.6332H138.691C147.4 62.6332 154.487 69.7204 154.487 78.4297V80.598C154.487 89.3073 147.4 96.3945 138.691 96.3945V96.3917ZM3.63404 90.6757C2.39942 90.6757 1.39332 91.6818 1.39332 92.9164C1.39332 94.151 2.39942 95.1571 3.63404 95.1571H138.691C146.72 95.1571 153.253 88.6245 153.253 80.5952V78.4269C153.253 70.3977 146.72 63.865 138.691 63.865H3.63404C2.39942 63.865 1.39332 64.8711 1.39332 66.1057C1.39332 67.3404 2.39942 68.3465 3.63404 68.3465H65.725C70.6049 68.3465 74.5736 72.3151 74.5736 77.1951V81.8243C74.5736 86.7042 70.6049 90.6729 65.725 90.6729H3.63404V90.6757Z" fill="black"/>
<path d="M40.957 79.1545H7.64717C7.30716 79.1545 7.03125 78.8786 7.03125 78.5386C7.03125 78.1986 7.30716 77.9227 7.64717 77.9227H40.957C41.2971 77.9227 41.573 78.1986 41.573 78.5386C41.573 78.8786 41.2971 79.1545 40.957 79.1545Z" fill="black"/>
<path d="M48.1057 85.3275H7.39082C7.05081 85.3275 6.7749 85.0516 6.7749 84.7116C6.7749 84.3716 7.05081 84.0956 7.39082 84.0956H48.1057C48.4457 84.0956 48.7216 84.3716 48.7216 84.7116C48.7216 85.0516 48.4457 85.3275 48.1057 85.3275Z" fill="black"/>
</svg>
