<svg width="102" height="89" viewBox="0 0 102 89" fill="none" xmlns="http://www.w3.org/2000/svg">
<path d="M36.4735 46.2179C36.3983 46.2179 36.3202 46.2039 36.245 46.1733C33.8872 45.2285 31.3093 43.6817 31.2006 43.6176C30.9079 43.4421 30.8132 43.063 30.9915 42.7704C31.1671 42.4778 31.5462 42.383 31.8388 42.5614C31.8639 42.5781 34.439 44.1221 36.7048 45.0278C37.0225 45.1533 37.1758 45.5128 37.0476 45.8305C36.9501 46.073 36.7188 46.2179 36.4735 46.2179Z" fill="black"/>
<path d="M60.0513 82.1448L69.4378 87.5125C70.2153 87.9584 71.2075 87.6825 71.6506 86.8994L100.649 35.8059C101.145 34.9335 100.844 33.8243 99.9774 33.3282L76.1906 19.725L60.0541 82.1448H60.0513Z" fill="white"/>
<path d="M60.0521 82.1449L69.4386 87.5126C69.8957 87.7746 70.4252 87.7857 70.8739 87.5962C70.8739 87.5962 71.6264 87.2534 72.4597 85.7902C73.176 84.5305 100.438 36.1766 100.438 36.1766C101.037 35.1175 100.736 34.0111 99.8696 33.515L76.0828 19.9118L60.0493 82.1449H60.0521Z" fill="white"/>
<path d="M70.2325 88.3424C69.8507 88.3424 69.4744 88.2421 69.1316 88.047L59.7451 82.6793C59.4497 82.5093 59.3465 82.1331 59.5166 81.8376C59.6866 81.5422 60.0628 81.4391 60.3582 81.6091L69.7448 86.9768C70.0179 87.1329 70.3384 87.1524 70.631 87.027C70.631 87.027 71.233 86.6953 71.9242 85.483C72.632 84.24 99.6294 36.3571 99.9025 35.8721C100.315 35.1475 100.176 34.3978 99.5653 34.0495L75.7785 20.4462C75.4831 20.2762 75.38 19.9 75.55 19.6046C75.72 19.3092 76.0963 19.206 76.3917 19.3761L100.178 32.9792C101.377 33.6648 101.72 35.1698 100.976 36.4825C100.702 36.9646 73.705 84.8504 72.9971 86.0961C72.0886 87.6875 71.2246 88.1139 71.1299 88.1585C70.8372 88.2839 70.5335 88.3452 70.2353 88.3452L70.2325 88.3424Z" fill="black"/>
<path d="M86.1908 52.1622L58.3684 84.4019C57.9782 84.8562 57.3233 84.9704 56.8049 84.6722L1.95457 53.3049C1.27176 52.9147 1.11568 51.9922 1.63127 51.393L43.8204 2.50954C44.2106 2.05527 44.8655 1.941 45.3839 2.23921L100.234 33.6066C100.917 33.9967 101.073 34.9192 100.558 35.5184L89 48.9293L86.1935 52.1622H86.1908Z" fill="white"/>
<path d="M57.4179 85.4527C57.1029 85.4527 56.7852 85.3719 56.4982 85.2074L1.64778 53.8401C1.16285 53.5614 0.831226 53.0876 0.733682 52.533C0.638925 51.9784 0.794969 51.4154 1.16006 50.989L43.3492 2.10554C43.9317 1.42831 44.9127 1.26109 45.6847 1.70143L100.535 33.0688C101.02 33.3475 101.352 33.8213 101.449 34.3759C101.544 34.9305 101.388 35.4935 101.023 35.9199L89.4653 49.3308C89.2423 49.59 88.8521 49.6178 88.5957 49.3949C88.3365 49.1719 88.3086 48.7817 88.5316 48.5253L100.089 35.1144C100.215 34.9695 100.268 34.7744 100.234 34.5849C100.215 34.4734 100.15 34.27 99.9247 34.1418L45.0744 2.77442C44.8152 2.62671 44.4835 2.68245 44.2856 2.91376L2.09648 51.7972C1.97107 51.9422 1.91814 52.1345 1.95159 52.3268C1.9711 52.4382 2.03519 52.6417 2.26094 52.7699L57.1113 84.1372C57.3705 84.2849 57.7022 84.2264 57.9 83.9979L85.7251 51.7582C85.9481 51.499 86.3383 51.4712 86.5947 51.6941C86.8539 51.9171 86.8817 52.3072 86.6588 52.5636L58.8364 84.8033C58.4714 85.2269 57.9502 85.4527 57.4206 85.4527H57.4179Z" fill="black"/>
<path d="M48.0931 80.7455C48.0325 80.7566 47.9774 80.7676 47.9224 80.7786L48.0931 80.7455Z" fill="black"/>
<path d="M34.8962 19.959L45.3502 25.9399L37.8031 34.6826L27.3491 28.7046L34.8962 19.959Z" fill="white"/>
<path d="M37.8032 35.3013C37.6973 35.3013 37.5941 35.2735 37.4966 35.2205L27.0427 29.2425C26.8838 29.1505 26.7723 28.9916 26.7417 28.8105C26.711 28.6293 26.7612 28.4426 26.8838 28.3033L34.4309 19.5577C34.6232 19.3348 34.9493 19.279 35.2057 19.424L45.6596 25.402C45.8185 25.494 45.93 25.6528 45.9606 25.834C45.9913 26.0152 45.9411 26.2019 45.8185 26.3412L38.2714 35.0867C38.1515 35.2261 37.9788 35.3013 37.8032 35.3013ZM28.3052 28.5429L37.6694 33.8967L44.3944 26.1043L35.0301 20.7506L28.3052 28.5429Z" fill="black"/>
<path d="M25.6886 30.594L36.1425 36.5748L28.5954 45.3176L18.1387 39.3395L25.6886 30.594Z" fill="white"/>
<path d="M28.5952 45.9363C28.4893 45.9363 28.3862 45.9084 28.2886 45.8555L17.8347 39.8774C17.6758 39.7854 17.5643 39.6266 17.5337 39.4454C17.503 39.2643 17.5532 39.0775 17.6758 38.9382L25.223 30.1927C25.4153 29.9697 25.7385 29.914 25.9977 30.0589L36.4516 36.037C36.6105 36.1289 36.722 36.2878 36.7527 36.4689C36.7833 36.6501 36.7331 36.8368 36.6105 36.9762L29.0634 45.7217C28.9435 45.861 28.7708 45.9363 28.5952 45.9363ZM19.0972 39.1751L28.4614 44.5289L35.1864 36.7365L25.8221 31.3827L19.0972 39.1751Z" fill="black"/>
<path d="M47.4714 27.152L57.9281 33.1301L50.3782 41.8756L39.9243 35.8976L47.4714 27.152Z" fill="white"/>
<path d="M50.3784 42.4918C50.2725 42.4918 50.1693 42.4639 50.0718 42.4109L39.6179 36.4329C39.459 36.3409 39.3475 36.1821 39.3169 36.0009C39.2862 35.8198 39.3364 35.633 39.459 35.4937L47.0061 26.7482C47.1984 26.5252 47.5217 26.4695 47.7809 26.6144L58.2348 32.5924C58.3937 32.6844 58.5052 32.8433 58.5358 33.0244C58.5665 33.2056 58.5163 33.3923 58.3937 33.5317L50.8466 42.2772C50.7267 42.4165 50.554 42.4918 50.3784 42.4918ZM40.8804 35.7334L50.2446 41.0871L56.9695 33.2948L47.6053 27.941L40.8804 35.7334Z" fill="black"/>
<path d="M38.2634 37.7875L48.7173 43.7656L41.1702 52.5111L30.7163 46.5331L38.2634 37.7875Z" fill="white"/>
<path d="M41.1704 53.1267C41.0645 53.1267 40.9614 53.0988 40.8638 53.0458L30.4099 47.0678C30.251 46.9758 30.1395 46.8169 30.1089 46.6358C30.0782 46.4546 30.1284 46.2679 30.251 46.1286L37.7982 37.3831C37.9905 37.1601 38.3165 37.1044 38.5729 37.2493L49.0268 43.2273C49.1857 43.3193 49.2972 43.4782 49.3278 43.6593C49.3585 43.8405 49.3083 44.0272 49.1857 44.1665L41.6386 52.9121C41.5187 53.0514 41.346 53.1267 41.1704 53.1267ZM31.6724 46.3655L41.0366 51.7192L47.7616 43.9269L38.3973 38.5731L31.6724 46.3655Z" fill="black"/>
<path d="M60.0489 34.3424L70.5028 40.3205L62.953 49.066L52.499 43.0879L60.0489 34.3424Z" fill="white"/>
<path d="M62.9531 49.6847C62.8472 49.6847 62.744 49.6569 62.6465 49.6039L52.1926 43.6259C52.0337 43.5339 51.9222 43.3751 51.8916 43.1939C51.8609 43.0127 51.9111 42.826 52.0337 42.6867L59.5836 33.9412C59.7759 33.7182 60.102 33.6625 60.3584 33.8074L70.8123 39.7854C70.9712 39.8774 71.0827 40.0363 71.1133 40.2174C71.144 40.3986 71.0938 40.5853 70.9712 40.7246L63.4241 49.4702C63.3042 49.6095 63.1315 49.6847 62.9559 49.6847H62.9531ZM53.4551 42.9236L62.8193 48.2773L69.5443 40.485L60.1828 35.1312L53.4551 42.9236Z" fill="black"/>
<path d="M50.8381 44.977L61.292 50.955L53.7449 59.7005L43.291 53.7225L50.8381 44.977Z" fill="white"/>
<path d="M53.7451 60.3193C53.6392 60.3193 53.5361 60.2914 53.4385 60.2384L42.9846 54.2604C42.8257 54.1684 42.7142 54.0096 42.6836 53.8284C42.6529 53.6473 42.7031 53.4606 42.8257 53.3212L50.3729 44.5757C50.5652 44.3527 50.8912 44.297 51.1476 44.4419L61.6015 50.42C61.7604 50.5119 61.8719 50.6708 61.9026 50.8519C61.9332 51.0331 61.883 51.2198 61.7604 51.3592L54.2133 60.1047C54.0934 60.244 53.9207 60.3193 53.7451 60.3193ZM44.2471 53.5609L53.6113 58.9146L60.3363 51.1223L50.9721 45.7685L44.2471 53.5609Z" fill="black"/>
<path d="M72.6241 41.5329L83.078 47.5137L75.5309 56.2593L65.0742 50.2784L72.6241 41.5329Z" fill="white"/>
<path d="M75.5278 56.8752C75.4219 56.8752 75.3188 56.8473 75.2212 56.7944L64.7673 50.8163C64.6085 50.7243 64.497 50.5655 64.4663 50.3843C64.4356 50.2032 64.4858 50.0164 64.6084 49.8771L72.1555 41.1316C72.3478 40.9086 72.6711 40.8529 72.9303 40.9978L83.3843 46.9759C83.5431 47.0678 83.6546 47.2267 83.6852 47.4078C83.7159 47.589 83.6658 47.7757 83.5431 47.9151L75.996 56.6606C75.8762 56.7999 75.7034 56.8752 75.5278 56.8752ZM66.0298 50.1168L75.3912 55.4706L82.1162 47.6782L72.752 42.3244L66.027 50.1168H66.0298Z" fill="black"/>
<path d="M63.4133 52.1708L73.8672 58.1488L66.3201 66.8943L55.8662 60.9135L63.4133 52.1708Z" fill="white"/>
<path d="M66.3198 67.5102C66.2139 67.5102 66.1108 67.4824 66.0132 67.4294L55.5593 61.4514C55.4004 61.3594 55.2889 61.2006 55.2583 61.0194C55.2276 60.8382 55.2778 60.6515 55.4004 60.5122L62.9476 51.7667C63.1399 51.5437 63.4632 51.488 63.7224 51.6329L74.1762 57.6109C74.3351 57.7029 74.4466 57.8618 74.4773 58.0429C74.5079 58.2241 74.4578 58.4108 74.3351 58.5501L66.788 67.2956C66.6682 67.435 66.4954 67.5102 66.3198 67.5102ZM56.8218 60.7518L66.186 66.1056L72.911 58.3132L63.5468 52.9595L56.8218 60.7518Z" fill="black"/>
<path d="M49.8821 11.3388C49.779 11.3388 49.6731 11.3137 49.5755 11.258C46.7161 9.62202 45.7183 5.95158 47.3515 3.07542C48.1458 1.67636 49.4334 0.673059 50.9801 0.24944C52.5157 -0.171393 54.1238 0.0320529 55.5062 0.820765C55.6121 0.882079 55.718 0.94618 55.8183 1.01307C56.1026 1.19979 56.1834 1.58161 55.9967 1.86867C55.8099 2.15294 55.4281 2.23377 55.1411 2.04704C55.0603 1.99409 54.9794 1.94392 54.893 1.89654C53.7978 1.26947 52.5269 1.11061 51.309 1.44226C50.0827 1.77949 49.0599 2.57656 48.43 3.68577C47.1313 5.97387 47.9228 8.88905 50.1942 10.1878C50.4896 10.3578 50.5927 10.734 50.4227 11.0294C50.3085 11.2301 50.0995 11.3416 49.8877 11.3416L49.8821 11.3388Z" fill="black"/>
<path d="M56.9246 15.3661C56.8214 15.3661 56.7155 15.3411 56.618 15.2853C53.7585 13.6494 52.7608 9.97892 54.394 7.10277C55.1883 5.70371 56.4758 4.7004 58.0226 4.27678C59.5582 3.85595 61.1663 4.0594 62.5486 4.84811C62.6546 4.90942 62.7577 4.97352 62.8608 5.03762C63.1451 5.22435 63.2259 5.60617 63.0392 5.89322C62.8524 6.17749 62.4706 6.25831 62.1836 6.07159C62.1027 6.01863 62.0191 5.96847 61.9355 5.9211C60.8402 5.29403 59.5666 5.13238 58.3487 5.46682C57.1224 5.80404 56.0996 6.60111 55.4697 7.71033C54.171 9.99564 54.9625 12.9136 57.2339 14.2123C57.5293 14.3823 57.6324 14.7586 57.4624 15.054C57.3482 15.2547 57.1392 15.3661 56.9273 15.3661H56.9246Z" fill="black"/>
<path d="M63.967 19.3931C63.8639 19.3931 63.758 19.368 63.6604 19.3123C60.801 17.6763 59.8033 14.0059 61.4364 11.1298C62.2307 9.73069 63.5183 8.72738 65.0623 8.30376C66.5979 7.88293 68.206 8.08638 69.5883 8.87509C69.6942 8.93641 69.7974 9.0005 69.9005 9.0646C70.1847 9.25133 70.2656 9.63315 70.0788 9.92021C69.8921 10.2045 69.5103 10.2853 69.2233 10.0986C69.1424 10.0456 69.0588 9.99545 68.9752 9.94529C67.8799 9.31822 66.6063 9.15936 65.3912 9.49101C64.1649 9.82823 63.1421 10.6253 62.5122 11.7345C61.2135 14.0226 62.005 16.9378 64.2764 18.2365C64.5718 18.4065 64.6749 18.7828 64.5049 19.0782C64.3906 19.2788 64.1816 19.3903 63.9698 19.3903L63.967 19.3931Z" fill="black"/>
<path d="M71.007 23.4205C70.9039 23.4205 70.798 23.3954 70.7005 23.3396C67.8411 21.7037 66.8433 18.0332 68.4765 15.1571C69.2708 13.758 70.5584 12.7547 72.1023 12.3311C73.638 11.9103 75.246 12.1137 76.6284 12.9024C76.7343 12.9637 76.8374 13.0278 76.9405 13.0947C77.2248 13.2815 77.3056 13.6633 77.1189 13.9503C76.9322 14.2346 76.5504 14.3154 76.2633 14.1287C76.1825 14.0757 76.1017 14.0256 76.0153 13.9782C74.92 13.3511 73.6463 13.1895 72.4284 13.5239C71.2022 13.8612 70.1793 14.6582 69.5495 15.7674C68.2507 18.0555 69.0423 20.9707 71.3136 22.2694C71.6091 22.4394 71.7122 22.8157 71.5422 23.1111C71.4279 23.3118 71.2189 23.4232 71.007 23.4232V23.4205Z" fill="black"/>
<path d="M78.05 27.4478C77.9469 27.4478 77.841 27.4227 77.7435 27.367C74.884 25.731 73.8863 22.0606 75.5195 19.1844C76.3137 17.7854 77.6013 16.7821 79.1453 16.3584C80.6809 15.9376 82.289 16.1411 83.6713 16.9298C83.7773 16.9911 83.8804 17.0552 83.9835 17.1193C84.2678 17.306 84.3486 17.6878 84.1619 17.9749C83.9751 18.2592 83.5933 18.34 83.3062 18.1533C83.2254 18.1003 83.1418 18.0501 83.0582 18C81.9629 17.3729 80.6893 17.2113 79.4714 17.5457C78.2451 17.8829 77.2223 18.68 76.5924 19.7892C75.2937 22.0773 76.0852 24.9925 78.3566 26.2912C78.652 26.4612 78.7551 26.8375 78.5851 27.1329C78.4709 27.3307 78.2618 27.445 78.05 27.445V27.4478Z" fill="black"/>
<path d="M85.0901 31.4747C84.9869 31.4747 84.881 31.4496 84.7835 31.3939C81.9241 29.7579 80.9263 26.0875 82.5595 23.2113C83.3538 21.8123 84.6414 20.809 86.1853 20.3854C87.721 19.9645 89.329 20.168 90.7114 20.9567C90.8173 21.018 90.9204 21.0821 91.0235 21.1462C91.3078 21.3329 91.3886 21.7147 91.2019 22.0018C91.0152 22.2861 90.6333 22.3669 90.3463 22.1802C90.2655 22.1272 90.1818 22.0771 90.0982 22.0269C89.003 21.3998 87.7293 21.241 86.5114 21.5726C85.2851 21.9098 84.2623 22.7069 83.6325 23.8161C82.3337 26.1042 83.1252 29.0194 85.3966 30.3181C85.692 30.4881 85.7952 30.8644 85.6252 31.1598C85.5109 31.3605 85.3019 31.4719 85.0901 31.4719V31.4747Z" fill="black"/>
<path d="M91.7312 35.2707C91.6281 35.2707 91.5222 35.2456 91.4246 35.1899C88.5652 33.5539 87.5674 29.8835 89.2006 27.0073C89.9949 25.6082 91.2825 24.6049 92.8292 24.1813C94.3649 23.7605 95.9729 23.9639 97.3553 24.7527C99.164 25.7866 100.29 27.6567 100.362 29.7525C100.374 30.0925 100.109 30.3795 99.766 30.3907C99.4093 30.4074 99.1389 30.1371 99.1278 29.7943C99.0693 28.1277 98.1775 26.645 96.7394 25.8228C95.6441 25.1958 94.3705 25.0369 93.1553 25.3686C91.9291 25.7058 90.9062 26.5029 90.2764 27.6121C88.9776 29.9002 89.7692 32.8153 92.0405 34.1141C92.336 34.2841 92.4391 34.6603 92.2691 34.9557C92.1548 35.1564 91.9458 35.2679 91.734 35.2679L91.7312 35.2707Z" fill="black"/>
</svg>
