<svg width="440" height="451" viewBox="0 0 440 451" fill="none" xmlns="http://www.w3.org/2000/svg">
<path d="M224.753 450.026C220.614 450.026 216.428 449.912 212.312 449.689C211.972 449.669 211.71 449.38 211.729 449.039C211.749 448.699 212.041 448.44 212.378 448.457C216.472 448.68 220.636 448.794 224.753 448.794C246.037 448.794 267.092 445.807 287.331 439.915C287.657 439.82 288 440.007 288.095 440.336C288.19 440.662 288.003 441.005 287.674 441.102C267.321 447.027 246.151 450.029 224.75 450.029L224.753 450.026Z" fill="black"/>
<path d="M353.176 409.609C352.981 409.609 352.789 409.517 352.669 409.347C352.474 409.069 352.541 408.684 352.819 408.489C358.884 404.242 364.806 399.638 370.425 394.808C370.684 394.585 371.074 394.615 371.294 394.872C371.514 395.128 371.486 395.521 371.227 395.741C365.581 400.599 359.625 405.228 353.527 409.498C353.419 409.573 353.296 409.609 353.173 409.609H353.176Z" fill="black"/>
<path d="M153.283 13.3913C153.024 13.3913 152.784 13.2297 152.698 12.9705C152.589 12.6472 152.762 12.2961 153.085 12.1874C176.114 4.44517 200.227 0.521118 224.75 0.521118C228.782 0.521118 232.862 0.629808 236.876 0.841618C237.216 0.85834 237.478 1.15097 237.458 1.49098C237.441 1.83099 237.149 2.09297 236.809 2.07346C232.818 1.86165 228.76 1.75296 224.747 1.75296C200.355 1.75296 176.376 5.6575 153.476 13.3551C153.411 13.3774 153.345 13.3886 153.278 13.3886L153.283 13.3913Z" fill="black"/>
<path d="M134.714 20.5732C134.477 20.5732 134.251 20.4367 134.148 20.2053C134.012 19.8932 134.154 19.5281 134.466 19.3916C137.063 18.2517 139.719 17.1453 142.356 16.1057C142.673 15.9803 143.03 16.1364 143.156 16.4541C143.281 16.7718 143.125 17.1285 142.807 17.2539C140.185 18.2879 137.545 19.386 134.962 20.5231C134.881 20.5593 134.797 20.576 134.714 20.576V20.5732Z" fill="black"/>
<path d="M7.73124 169.657C7.68107 169.657 7.62812 169.651 7.57795 169.637C7.24909 169.551 7.04843 169.217 7.13483 168.885C11.6218 151.522 18.213 134.697 26.73 118.878C26.8917 118.577 27.2651 118.466 27.5661 118.627C27.8671 118.789 27.9786 119.163 27.8169 119.464C19.3473 135.196 12.7896 151.926 8.33044 169.194C8.25798 169.473 8.00715 169.657 7.73403 169.657H7.73124Z" fill="black"/>
<path d="M24.1714 326.017C23.9457 326.017 23.7255 325.892 23.6196 325.677C7.94565 294.34 0 260.562 0 225.274C0 209.17 1.7112 193.098 5.08622 177.502C5.15868 177.168 5.48754 176.959 5.81919 177.028C6.15363 177.101 6.36544 177.43 6.29298 177.761C2.93468 193.271 1.23463 209.257 1.23463 225.271C1.23463 260.367 9.13569 293.961 24.7232 325.122C24.8765 325.426 24.7511 325.797 24.4473 325.95C24.3581 325.995 24.2634 326.014 24.1714 326.014V326.017Z" fill="black"/>
<path d="M46.0157 128.003C45.907 128.003 45.7983 127.975 45.6979 127.913C45.4053 127.738 45.3106 127.359 45.4861 127.066C53.1698 114.296 62.2944 102.343 72.6089 91.5379C72.843 91.2899 73.236 91.2815 73.4813 91.5184C73.7265 91.7553 73.7377 92.1455 73.5008 92.3908C63.2475 103.129 54.1787 115.01 46.5424 127.702C46.4253 127.894 46.2219 128 46.0129 128L46.0157 128.003Z" fill="black"/>
<path d="M35.1406 314.822C34.9065 314.822 34.6808 314.688 34.5777 314.46C22.6968 288.217 16.6714 260.189 16.6714 231.151C16.6714 198.535 24.199 167.399 39.0452 138.61C39.2013 138.306 39.5719 138.189 39.8757 138.345C40.1795 138.501 40.2965 138.875 40.1405 139.176C25.3862 167.79 17.906 198.736 17.906 231.154C17.906 260.016 23.8924 287.872 35.7008 313.952C35.8402 314.262 35.7008 314.63 35.3943 314.769C35.3106 314.805 35.2242 314.825 35.1406 314.825V314.822Z" fill="black"/>
<path d="M340.8 411.298C340.646 411.298 340.493 411.243 340.373 411.126C340.128 410.889 340.12 410.499 340.354 410.253L342.625 407.882C342.862 407.636 343.252 407.628 343.497 407.862C343.743 408.099 343.751 408.489 343.517 408.734L341.246 411.106C341.126 411.231 340.961 411.296 340.8 411.296V411.298Z" fill="black"/>
<path d="M332.851 419.598C332.698 419.598 332.544 419.543 332.425 419.426C332.179 419.189 332.171 418.798 332.405 418.553L334.676 416.181C334.913 415.936 335.303 415.928 335.549 416.162C335.794 416.399 335.802 416.789 335.568 417.034L333.297 419.406C333.177 419.531 333.013 419.596 332.851 419.596V419.598Z" fill="black"/>
<path d="M335.078 411.427C334.922 411.427 334.766 411.368 334.646 411.248L332.341 408.98C332.098 408.74 332.096 408.35 332.335 408.107C332.575 407.865 332.965 407.862 333.208 408.102L335.512 410.37C335.755 410.61 335.758 411 335.518 411.243C335.398 411.365 335.237 411.427 335.078 411.427Z" fill="black"/>
<path d="M343.148 419.367C342.992 419.367 342.836 419.308 342.716 419.188L340.412 416.92C340.169 416.68 340.166 416.29 340.406 416.047C340.646 415.805 341.036 415.802 341.278 416.042L343.583 418.31C343.826 418.55 343.828 418.94 343.589 419.183C343.469 419.305 343.307 419.367 343.148 419.367Z" fill="black"/>
<path d="M436.532 183.054C436.378 183.054 436.225 182.998 436.105 182.881C435.86 182.644 435.852 182.254 436.086 182.009L438.357 179.637C438.594 179.392 438.984 179.383 439.229 179.617C439.475 179.854 439.483 180.244 439.249 180.49L436.978 182.861C436.858 182.987 436.693 183.051 436.532 183.051V183.054Z" fill="black"/>
<path d="M428.583 191.351C428.43 191.351 428.277 191.295 428.157 191.178C427.912 190.941 427.903 190.551 428.137 190.305L430.409 187.934C430.646 187.688 431.036 187.68 431.281 187.914C431.526 188.151 431.535 188.541 431.301 188.787L429.029 191.158C428.909 191.284 428.745 191.348 428.583 191.348V191.351Z" fill="black"/>
<path d="M430.81 183.179C430.654 183.179 430.498 183.121 430.378 183.001L428.073 180.732C427.831 180.493 427.828 180.102 428.068 179.86C428.307 179.617 428.698 179.615 428.94 179.854L431.245 182.123C431.487 182.363 431.49 182.753 431.25 182.995C431.131 183.118 430.969 183.179 430.81 183.179Z" fill="black"/>
<path d="M438.881 191.122C438.725 191.122 438.569 191.063 438.449 190.944L436.144 188.675C435.902 188.435 435.899 188.045 436.138 187.803C436.378 187.56 436.768 187.557 437.011 187.797L439.316 190.066C439.558 190.305 439.561 190.696 439.321 190.938C439.201 191.061 439.04 191.122 438.881 191.122Z" fill="black"/>
</svg>
