<svg width="103" height="114" viewBox="0 0 103 114" fill="none" xmlns="http://www.w3.org/2000/svg">
<path d="M19.0075 56.8496L43.5496 80.5639C45.8126 82.7489 49.4329 82.6625 51.5705 80.3549C58.9782 72.3675 76.5752 55.1496 98.6257 45.4648C101.808 44.0686 102.99 40.164 101.095 37.2488L79.2618 3.69092C77.6231 1.1715 74.2954 0.377212 71.7063 1.90168C63.4485 6.77052 44.7898 19.6853 18.7037 49.0712C16.7055 51.323 16.842 54.7566 19.0047 56.8468L19.0075 56.8496Z" fill="white"/>
<path d="M47.4566 82.7627C45.829 82.7627 44.2962 82.144 43.1201 81.007L18.578 57.2926C16.1645 54.9599 16.0168 51.1696 18.2436 48.6642C44.1011 19.5375 62.6428 6.53352 71.3939 1.37205C74.2701 -0.322424 77.9517 0.54711 79.7799 3.35638L101.613 36.9143C102.611 38.4499 102.884 40.3367 102.36 42.0897C101.833 43.8538 100.562 45.2891 98.8735 46.0305C76.5944 55.8155 58.6881 73.588 52.0217 80.7756C50.8762 82.0103 49.3183 82.7154 47.6322 82.7627C47.5737 82.7627 47.5152 82.7627 47.4566 82.7627ZM19.4364 56.4036L43.9785 80.1179C44.9567 81.0627 46.2387 81.5588 47.5988 81.5253C48.9504 81.4891 50.199 80.9233 51.1159 79.934C57.8325 72.6906 75.8837 54.776 98.3774 44.899C99.7346 44.3026 100.755 43.1515 101.175 41.7358C101.596 40.3311 101.376 38.8178 100.576 37.5859L78.7432 4.02804C77.2772 1.77616 74.3258 1.07663 72.021 2.43389C63.334 7.55634 44.9121 20.4795 19.1689 49.4807C17.3824 51.4902 17.5023 54.5335 19.4392 56.4036H19.4364Z" fill="black"/>
<path d="M2.55291 87.7856L27.095 111.5C29.358 113.685 32.9783 113.599 35.1159 111.291C42.5236 103.303 60.1206 86.0856 82.1711 76.4009C85.3538 75.0046 86.5355 71.1 84.6404 68.1849L62.8072 34.627C61.1685 32.1075 57.8408 31.3132 55.2517 32.8377C46.9939 37.7066 28.3352 50.6214 2.24913 80.0072C0.250874 82.2591 0.387435 85.6926 2.55012 87.7829L2.55291 87.7856Z" fill="white"/>
<path d="M31.0027 113.701C29.3751 113.701 27.8423 113.082 26.6661 111.945L2.12687 88.2279C-0.286645 85.8952 -0.434355 82.1049 1.79244 79.5995C27.65 50.47 46.1917 37.466 54.9428 32.3074C57.8189 30.6129 61.5005 31.4824 63.3287 34.2917L85.1619 67.8496C86.1596 69.3852 86.4327 71.272 85.9088 73.025C85.382 74.7891 84.1112 76.2244 82.4223 76.9658C60.1432 86.7508 42.237 104.523 35.5705 111.711C34.4251 112.946 32.8672 113.651 31.181 113.698C31.1225 113.698 31.064 113.698 31.0055 113.698L31.0027 113.701ZM2.98247 87.3417L27.5245 111.056C28.5028 112.001 29.7848 112.497 31.1476 112.463C32.4993 112.427 33.7478 111.861 34.6648 110.872C41.3814 103.629 59.4326 85.7141 81.9262 75.837C83.2835 75.2406 84.3035 74.0868 84.7271 72.6738C85.1479 71.2692 84.9278 69.7559 84.1279 68.524L62.2948 34.9661C60.8288 32.7143 57.8774 32.0147 55.5698 33.372C46.8828 38.4944 28.461 51.4176 2.71771 80.4188C0.931261 82.4282 1.0511 85.4688 2.98805 87.3417H2.98247Z" fill="black"/>
<path d="M7.73144 85.698C7.43045 85.698 7.16847 85.4778 7.12109 85.174C7.07093 84.8368 7.30225 84.5219 7.63947 84.4717L37.8168 79.915C43.1455 79.1096 47.5043 75.4586 49.196 70.3863L59.2235 40.2954C59.3322 39.9721 59.6806 39.7966 60.0039 39.9052C60.3271 40.0139 60.5027 40.3623 60.394 40.6856L50.3665 70.7765C48.5271 76.2919 43.7893 80.2634 38.0007 81.1357L7.82341 85.6924C7.79275 85.698 7.7621 85.7008 7.73144 85.7008V85.698Z" fill="black"/>
</svg>
