<svg width="109" height="131" viewBox="0 0 109 131" fill="none" xmlns="http://www.w3.org/2000/svg">
<path d="M1.06901 114.594C7.4038 118.658 49.069 143.161 98.9864 119.46C99.1676 119.374 99.3125 119.234 99.3989 119.053C101.325 115.076 122.57 68.3249 92.0023 1.54624C91.7654 1.02508 91.1049 0.85508 90.659 1.20345C85.0572 5.58736 53.4501 29.4048 28.3785 28.7917C27.7877 28.7777 27.3474 29.3184 27.5034 29.8925C29.3094 36.5032 36.2907 70.8638 0.871115 113.284C0.531105 113.691 0.620311 114.304 1.06901 114.594Z" fill="white"/>
<path d="M54.8771 130.296C47.8177 130.296 40.7054 129.546 33.5568 128.041C16.0685 124.362 4.01209 117.213 0.734609 115.112C0.375089 114.881 0.129863 114.505 0.0657627 114.081C-0.00112456 113.655 0.121486 113.22 0.397396 112.888C35.6442 70.6739 28.6656 36.4805 26.9071 30.0538C26.7817 29.5939 26.8764 29.1201 27.1691 28.7467C27.4645 28.3704 27.9159 28.1614 28.3925 28.1726C53.1687 28.7885 84.2852 5.40859 90.2772 0.715334C90.6367 0.43385 91.0966 0.336298 91.5425 0.444989C91.9968 0.556468 92.3674 0.86304 92.5625 1.28666C105.397 29.3236 110.756 57.1181 108.498 83.9008C106.773 104.374 101.077 116.999 99.9536 119.32C99.8059 119.627 99.5634 119.867 99.2512 120.017C84.8342 126.862 69.9797 130.296 54.8799 130.296H54.8771ZM28.3535 29.4072C28.2365 29.4072 28.1696 29.4713 28.1389 29.5075C28.1055 29.5521 28.0692 29.6246 28.0971 29.7277C29.8836 36.2576 36.9848 70.9944 1.34218 113.68C1.27251 113.76 1.2753 113.85 1.28088 113.894C1.28645 113.939 1.31151 114.02 1.39791 114.073C4.6308 116.146 16.5228 123.197 33.8076 126.831C55.9696 131.494 77.8083 128.827 98.7162 118.9C98.7719 118.872 98.8137 118.833 98.8388 118.783C99.9452 116.494 105.558 104.053 107.267 83.7949C109.507 57.2267 104.181 29.6385 91.4394 1.79947C91.3892 1.68799 91.2917 1.65176 91.2527 1.6434C91.2081 1.63225 91.1217 1.62388 91.0408 1.68798C85.0684 6.36452 54.3392 29.4156 29.3401 29.4183C29.0112 29.4183 28.6907 29.4156 28.3646 29.4072C28.3646 29.4072 28.3591 29.4072 28.3563 29.4072H28.3535Z" fill="black"/>
<path d="M37.6558 40.3269C37.3687 40.3269 37.1123 40.1262 37.0538 39.8364C36.9841 39.5019 37.1959 39.1759 37.5303 39.1062C37.7979 39.0504 64.5723 33.3065 84.07 18.8393C84.3431 18.6359 84.7305 18.6944 84.9339 18.9675C85.1374 19.2407 85.0788 19.6281 84.8057 19.8315C65.0879 34.4659 38.0571 40.26 37.784 40.3157C37.7422 40.3241 37.6976 40.3297 37.6558 40.3297V40.3269Z" fill="black"/>
<path d="M56.9166 47.2886C56.6352 47.2886 56.3815 47.0935 56.3147 46.8092C56.2394 46.4776 56.4484 46.1459 56.7801 46.0707C69.5277 43.175 80.7313 38.4539 90.0788 32.0383C90.3603 31.846 90.7449 31.9157 90.9372 32.1972C91.1295 32.4786 91.057 32.8632 90.7783 33.0555C81.3026 39.5603 69.9541 44.3428 57.0532 47.2747C57.0058 47.2858 56.9612 47.2914 56.9166 47.2914V47.2886Z" fill="black"/>
<path d="M37.4217 49.9647C37.0844 49.9647 36.8085 49.6943 36.8057 49.3543C36.8002 49.0143 37.0733 48.7328 37.4133 48.73C37.4551 48.73 41.5464 48.6631 47.8003 47.749C48.1403 47.7016 48.4497 47.9329 48.4999 48.2702C48.55 48.6074 48.3159 48.9223 47.9787 48.9697C41.6356 49.8978 37.4718 49.9647 37.43 49.9647H37.4217Z" fill="black"/>
<path d="M43.3496 60.6718C39.236 60.6718 36.8392 60.4015 36.7584 60.3904C36.4212 60.3485 36.1787 60.042 36.2205 59.7047C36.2623 59.3675 36.5661 59.1251 36.9061 59.1669C37.1653 59.1975 63.2764 62.1294 92.5257 48.0524C92.8322 47.9047 93.2029 48.0329 93.3506 48.3423C93.4983 48.6488 93.3701 49.0195 93.0636 49.1672C72.2811 59.1696 53.051 60.6746 43.3496 60.6746V60.6718Z" fill="black"/>
<path d="M51.3237 71.8725C40.7528 71.8725 34.1365 70.4372 34.0027 70.4065C33.6711 70.3313 33.4621 70.0024 33.5373 69.668C33.6126 69.3363 33.9414 69.1273 34.2759 69.2026C34.549 69.2639 61.8529 75.1695 94.5748 62.5947C94.8925 62.472 95.2492 62.6309 95.3718 62.9486C95.4945 63.2663 95.3356 63.623 95.0179 63.7457C78.0313 70.2728 62.48 71.8697 51.3265 71.8697L51.3237 71.8725Z" fill="black"/>
<path d="M75.5642 84.7542C75.2604 84.7542 74.9984 84.5313 74.9538 84.2219C74.9065 83.8847 75.1406 83.5726 75.4778 83.5252C82.0578 82.5999 88.3257 80.9751 94.1087 78.7037C94.4264 78.5783 94.7831 78.7344 94.9086 79.0521C95.034 79.3698 94.8779 79.7266 94.5602 79.852C88.688 82.1596 82.3254 83.8095 75.6506 84.7487C75.6227 84.7514 75.592 84.7542 75.5642 84.7542Z" fill="black"/>
<path d="M61.7299 85.6992C44.2222 85.6992 30.8308 81.3934 30.6914 81.346C30.3681 81.2401 30.1898 80.8917 30.2957 80.5684C30.4016 80.2451 30.7527 80.0696 31.0732 80.1727C31.2182 80.2201 45.939 84.9468 64.6423 84.4228C64.9991 84.4145 65.2666 84.682 65.2778 85.022C65.2861 85.362 65.0186 85.6463 64.6786 85.6574C63.6836 85.6853 62.6998 85.6992 61.7299 85.6992Z" fill="black"/>
</svg>
