<svg width="106" height="60" viewBox="0 0 106 60" fill="none" xmlns="http://www.w3.org/2000/svg">
<path d="M1.34473 30.9484L61.7885 48.5286L104.688 0.815674L1.34473 30.9484Z" fill="white"/>
<path d="M61.7886 49.1445C61.7301 49.1445 61.6743 49.1362 61.6158 49.1194L1.17198 31.5392C0.907221 31.464 0.726074 31.2215 0.726074 30.9456C0.726074 30.6697 0.907221 30.43 1.17198 30.352L104.516 0.219263C104.78 0.141227 105.065 0.249923 105.21 0.484028C105.357 0.718134 105.329 1.01912 105.145 1.22536L62.2457 48.9355C62.1258 49.0665 61.9586 49.139 61.7858 49.139L61.7886 49.1445ZM3.55207 30.9484L61.5879 47.8263L102.779 2.01407L3.55207 30.9456V30.9484Z" fill="black"/>
<path d="M31.4605 59.3139L23.0244 37.255L89.8197 9.09265L33.6483 40.3429L46.2845 44.019L31.4605 59.3139Z" fill="white"/>
<path d="M31.4606 59.9296C31.4188 59.9296 31.377 59.9268 31.338 59.9157C31.1318 59.8739 30.9618 59.7289 30.8865 59.5311L22.4504 37.4722C22.3305 37.1601 22.481 36.8117 22.7876 36.6835L89.5829 8.52114C89.8867 8.39294 90.2351 8.52393 90.3772 8.81935C90.5221 9.11477 90.4079 9.46871 90.1236 9.63036L35.2454 40.1616L46.4601 43.4224C46.6691 43.4837 46.828 43.6481 46.8838 43.8571C46.9395 44.0662 46.881 44.2891 46.7305 44.4452L31.9066 59.7401C31.7895 59.8599 31.6279 59.9268 31.4634 59.9268L31.4606 59.9296ZM23.816 37.5892L31.692 58.1877L45.1279 44.3254L33.4784 40.9364C33.2387 40.8667 33.0659 40.6605 33.0381 40.4124C33.0102 40.1644 33.1328 39.9247 33.3502 39.8049L79.6083 14.07L23.816 37.592V37.5892Z" fill="black"/>
<path d="M32.2299 53.2685C32.2048 53.2685 32.1825 53.2684 32.1574 53.2657C31.8202 53.2266 31.5749 52.9201 31.6139 52.5829L33.0353 40.2756C33.0743 39.9356 33.3809 39.6959 33.7181 39.7321C34.0553 39.7712 34.3006 40.0777 34.2616 40.4149L32.8402 52.7222C32.804 53.0371 32.5364 53.2685 32.2271 53.2685H32.2299Z" fill="black"/>
</svg>
