<svg width="165" height="94" viewBox="0 0 165 94" fill="none" xmlns="http://www.w3.org/2000/svg">
<path d="M5.55787 93.5719C5.38786 93.5719 5.21786 93.5022 5.09524 93.3629C3.43142 91.49 2.24974 89.2131 1.58087 86.5961C1.49726 86.2645 1.69513 85.93 2.02678 85.8464C2.35843 85.7628 2.69287 85.9607 2.77648 86.2923C3.39518 88.717 4.48768 90.8211 6.01772 92.5463C6.24347 92.7999 6.22117 93.1901 5.96477 93.4186C5.84772 93.5217 5.7 93.5747 5.55508 93.5747L5.55787 93.5719ZM1.5948 79.7095C1.5948 79.7095 1.56693 79.7095 1.55578 79.7095C1.21577 79.6872 0.956581 79.3946 0.978876 79.0546C1.12659 76.7386 1.54185 74.247 2.21629 71.6412C2.30269 71.3124 2.63713 71.1117 2.96878 71.1981C3.29764 71.2845 3.49831 71.6217 3.41191 71.9506C2.75698 74.4784 2.35285 76.8947 2.21071 79.1326C2.1912 79.4587 1.91809 79.7095 1.5948 79.7095ZM5.14819 65.3845C5.07294 65.3845 4.9949 65.3705 4.91687 65.3399C4.60194 65.2117 4.44866 64.8521 4.57408 64.5372C5.47984 62.2826 6.53888 60.0028 7.72056 57.7621C7.87942 57.4611 8.25287 57.3441 8.55386 57.5029C8.85485 57.6618 8.97191 58.0352 8.81305 58.3362C7.65088 60.5407 6.60856 62.7814 5.71952 64.9971C5.62197 65.2368 5.39065 65.3845 5.1454 65.3845H5.14819ZM12.0487 52.2941C11.9317 52.2941 11.8118 52.2606 11.7059 52.1909C11.4217 52.0014 11.3464 51.6196 11.5359 51.3353C12.673 49.6297 13.8101 48.1053 14.9109 46.7982C15.3095 46.3244 15.7108 45.8617 16.1205 45.4102C16.349 45.1566 16.7392 45.1371 16.9928 45.3657C17.2464 45.5942 17.2659 45.9844 17.0374 46.238C16.6389 46.6811 16.2431 47.1354 15.8529 47.5952C14.7827 48.8661 13.6735 50.3571 12.5615 52.0237C12.4417 52.2021 12.2466 52.2969 12.0487 52.2969V52.2941ZM21.8867 41.2883C21.7112 41.2883 21.5384 41.2131 21.4157 41.0709C21.1956 40.8118 21.229 40.4216 21.4882 40.2014C23.3722 38.6073 25.3983 37.1134 27.5108 35.759C27.7979 35.575 28.1797 35.6586 28.3637 35.9457C28.5476 36.2328 28.464 36.6146 28.1769 36.7985C26.109 38.1223 24.1275 39.5855 22.2853 41.1434C22.1682 41.2409 22.0289 41.2883 21.8867 41.2883ZM34.3083 33.3009C34.077 33.3009 33.8568 33.1727 33.7509 32.9497C33.6032 32.6431 33.7341 32.2725 34.0407 32.1275C36.2201 31.0824 38.5417 30.1237 40.9385 29.2765C41.259 29.1622 41.6129 29.3322 41.7272 29.6527C41.8414 29.9732 41.6714 30.3272 41.3509 30.4414C38.9959 31.2747 36.7162 32.2167 34.5758 33.2423C34.4894 33.2841 34.4002 33.3037 34.3083 33.3037V33.3009ZM48.2292 28.3401C47.9533 28.3401 47.7024 28.1533 47.63 27.8746C47.5464 27.543 47.747 27.2085 48.0759 27.1249C50.3891 26.5369 52.8388 26.0129 55.3583 25.567C55.6927 25.5085 56.0132 25.7314 56.0745 26.0687C56.133 26.4031 55.9101 26.7236 55.5729 26.7849C53.0841 27.2253 50.6622 27.7409 48.3797 28.3233C48.3295 28.3373 48.2766 28.3428 48.2264 28.3428L48.2292 28.3401ZM62.7939 25.7287C62.4845 25.7287 62.217 25.4973 62.1808 25.1824C62.1418 24.8424 62.3842 24.5386 62.7214 24.4968C65.0625 24.2265 67.554 23.9952 70.1264 23.8168C70.4664 23.7917 70.7618 24.0481 70.7841 24.3909C70.8092 24.7309 70.5528 25.0263 70.2128 25.0486C67.6572 25.227 65.1851 25.4527 62.8636 25.7231C62.8385 25.7231 62.8162 25.7259 62.7911 25.7259L62.7939 25.7287ZM114.606 24.8954H114.601C111.825 24.8703 109.177 24.7978 107.182 24.7393C106.842 24.7281 106.574 24.4439 106.583 24.1039C106.594 23.7638 106.87 23.5019 107.218 23.5047C109.208 23.5632 111.845 23.6356 114.612 23.6607C114.952 23.6635 115.228 23.9422 115.222 24.285C115.22 24.625 114.944 24.8954 114.606 24.8954ZM122.014 24.8313C121.683 24.8313 121.407 24.5665 121.398 24.2321C121.387 23.892 121.658 23.6078 121.998 23.5966C124.637 23.5186 127.048 23.382 129.363 23.1758C129.706 23.1451 130.002 23.396 130.032 23.736C130.063 24.076 129.812 24.3742 129.472 24.4049C127.134 24.6111 124.701 24.7504 122.037 24.8285C122.031 24.8285 122.025 24.8285 122.017 24.8285L122.014 24.8313ZM77.5732 24.6668C77.2416 24.6668 76.9684 24.4048 76.9573 24.0704C76.9461 23.7304 77.2109 23.4433 77.5509 23.4322C79.8418 23.3514 82.2692 23.2929 84.9726 23.2566H84.981C85.3182 23.2566 85.5941 23.527 85.5969 23.867C85.6025 24.207 85.3293 24.4885 84.9865 24.4912C82.2943 24.5275 79.8752 24.5832 77.5927 24.6668C77.5844 24.6668 77.5788 24.6668 77.5704 24.6668H77.5732ZM99.7965 24.5135C99.7965 24.5135 99.7854 24.5135 99.7798 24.5135C97.8568 24.4634 96.3435 24.4383 95.0141 24.4383L94.897 23.8224V24.4383L92.3915 24.4411C92.0515 24.4411 91.7756 24.1652 91.7756 23.8252C91.7756 23.4851 92.0515 23.2064 92.3915 23.2064H94.8998L95.0168 23.2037C96.3546 23.2037 97.8791 23.226 99.8132 23.2789C100.153 23.2873 100.424 23.5715 100.415 23.9116C100.407 24.246 100.131 24.5135 99.7993 24.5135H99.7965ZM136.763 23.4629C136.467 23.4629 136.208 23.251 136.155 22.9528C136.097 22.6184 136.32 22.2979 136.657 22.2394C139.215 21.7907 141.612 21.2221 143.786 20.5505C144.112 20.4501 144.458 20.6313 144.558 20.9574C144.658 21.2834 144.477 21.629 144.151 21.7294C141.927 22.4177 139.48 22.9974 136.872 23.4545C136.835 23.4601 136.799 23.4629 136.763 23.4629ZM150.815 18.9619C150.595 18.9619 150.38 18.8421 150.269 18.633C150.11 18.332 150.224 17.9586 150.525 17.7997C152.771 16.6097 154.75 15.2078 156.411 13.636C156.659 13.4019 157.049 13.413 157.283 13.6611C157.517 13.9091 157.506 14.2993 157.258 14.5334C155.516 16.1805 153.446 17.6492 151.102 18.8922C151.01 18.9424 150.91 18.9647 150.812 18.9647L150.815 18.9619ZM161.291 8.84241C161.193 8.84241 161.096 8.82011 161.004 8.76994C160.703 8.61109 160.586 8.23763 160.748 7.93664C161.826 5.89379 162.612 3.60848 163.083 1.1448C163.147 0.810359 163.47 0.590185 163.805 0.654286C164.139 0.718386 164.359 1.04167 164.295 1.37611C163.799 3.95963 162.974 6.35922 161.84 8.51076C161.729 8.71978 161.517 8.83962 161.294 8.83962L161.291 8.84241Z" fill="black"/>
</svg>
