<svg width="70" height="143" viewBox="0 0 70 143" fill="none" xmlns="http://www.w3.org/2000/svg">
<path d="M31.9509 108.646C31.9509 108.646 10.6055 61.861 22.8514 1.21094C22.8514 1.21094 55.9328 28.9301 44.0073 108.646H31.9537H31.9509Z" fill="white"/>
<path d="M44.0048 109.262H31.9512C31.7087 109.262 31.4913 109.119 31.391 108.899C31.1764 108.428 10.1041 61.2365 22.247 1.08533C22.2888 0.870729 22.442 0.69793 22.6483 0.625469C22.8545 0.553008 23.083 0.594816 23.2475 0.734165C23.5903 1.02122 31.7143 7.95799 38.4727 24.8024C44.6876 40.2869 50.7967 67.418 44.6152 108.735C44.5706 109.036 44.3114 109.262 44.0048 109.262ZM32.3553 108.027H43.4725C49.4729 67.3428 43.4725 40.6269 37.3663 25.3598C31.9289 11.7706 25.452 4.60528 23.2391 2.4203C12.186 58.8955 30.4434 103.579 32.3553 108.027Z" fill="black"/>
<path d="M37.171 104.384C37.171 104.384 37.1487 104.384 37.1375 104.384C36.7975 104.365 36.5355 104.075 36.5551 103.735C38.1882 73.8224 24.7021 9.97573 24.5655 9.33473C24.4958 9.00029 24.7076 8.67421 25.0421 8.60175C25.3737 8.53208 25.7026 8.74391 25.7751 9.07835C25.9116 9.72214 39.434 73.7249 37.7897 103.802C37.773 104.131 37.4998 104.384 37.1738 104.384H37.171Z" fill="black"/>
<path d="M56.6772 32.8043C56.6772 32.8043 29.1781 82.4904 45.7188 103.989H54.5674C54.5674 103.989 72.2508 65.1499 56.6772 32.8043Z" fill="white"/>
<path d="M54.5671 104.608H45.7185C45.5262 104.608 45.345 104.518 45.228 104.368C38.2355 95.2823 37.9596 80.4055 44.403 60.1498C49.1743 45.1559 56.0637 32.634 56.1334 32.5086C56.2449 32.3079 56.4567 32.1825 56.6908 32.1909C56.9221 32.1965 57.1283 32.333 57.2287 32.5393C72.7493 64.7734 55.3029 103.858 55.1245 104.248C55.0242 104.468 54.804 104.61 54.5615 104.61L54.5671 104.608ZM46.0251 103.373H54.163C55.8547 99.4182 70.2355 64.0209 56.6406 34.1836C52.8058 41.5077 31.6164 84.0592 46.0251 103.373Z" fill="black"/>
<path d="M49.849 105.923C49.5201 105.923 49.2442 105.661 49.2331 105.329C48.436 84.8173 55.3337 40.1923 55.4034 39.7436C55.4564 39.4063 55.7713 39.1778 56.1085 39.228C56.4457 39.2809 56.677 39.5959 56.6241 39.9331C56.5544 40.379 49.6762 84.8897 50.4677 105.282C50.4816 105.622 50.2168 105.909 49.8741 105.923C49.8657 105.923 49.8573 105.923 49.849 105.923Z" fill="black"/>
<path d="M0.920898 51.1053C0.920898 51.1053 24.3482 59.0983 32.8289 106.418H23.6152C23.6152 106.418 4.3851 80.4298 0.920898 51.1053Z" fill="white"/>
<path d="M32.8292 107.034H23.6154C23.4204 107.034 23.2364 106.942 23.1194 106.783C22.927 106.521 3.75269 80.3267 0.307993 51.1778C0.28291 50.966 0.369305 50.7598 0.533736 50.626C0.698168 50.4922 0.92113 50.4532 1.12179 50.5229C1.36705 50.6065 7.2141 52.666 14.162 60.6117C20.5247 67.8912 29.0333 81.7258 33.4395 106.31C33.473 106.491 33.4228 106.675 33.3057 106.814C33.1887 106.953 33.0159 107.034 32.8319 107.034H32.8292ZM23.9304 105.8H32.0906C24.6605 65.4471 6.07702 54.2295 1.66804 52.1031C5.20749 78.9806 21.9934 103.093 23.9304 105.8Z" fill="black"/>
<path d="M27.7931 105.7C27.4948 105.7 27.2357 105.485 27.1855 105.184C23.699 84.1091 8.61033 62.8891 8.45705 62.6773C8.25917 62.4014 8.32048 62.014 8.59918 61.8161C8.87788 61.6182 9.26248 61.6796 9.46035 61.9583C9.61364 62.1729 24.8695 83.6297 28.4034 104.984C28.4591 105.321 28.2306 105.638 27.8962 105.694C27.8627 105.7 27.8293 105.703 27.7958 105.703L27.7931 105.7Z" fill="black"/>
<path d="M9.95917 102.662H67.7554L69.0513 129.999C69.369 136.702 64.0208 142.309 57.3098 142.309H24.3009C16.3608 142.309 9.92851 135.869 9.93409 127.928L9.95638 102.659L9.95917 102.662Z" fill="black"/>
</svg>
