<svg width="277" height="410" viewBox="0 0 277 410" fill="none" xmlns="http://www.w3.org/2000/svg">
<path d="M225.558 364.503C225.558 364.503 239.85 393.351 255.908 407.216C258.617 409.554 262.834 408.264 263.845 404.833C264.428 402.849 265.002 400.204 265.473 396.681C267.24 383.51 255.392 349.213 255.392 349.213L250.117 347.513C248.266 346.917 246.304 348.048 245.894 349.952L245.343 352.521L239 346.936C237.556 345.666 235.337 345.855 234.145 347.366C231.72 350.437 227.958 356.17 225.555 364.503H225.558Z" fill="white"/>
<path d="M259.085 409.016C257.786 409.016 256.518 408.556 255.507 407.681C239.537 393.894 225.151 365.066 225.006 364.776C224.936 364.636 224.922 364.48 224.967 364.33C227.342 356.089 231.006 350.348 233.665 346.981C234.345 346.12 235.323 345.59 236.419 345.49C237.517 345.39 238.584 345.738 239.412 346.468L244.966 351.356L245.298 349.815C245.529 348.74 246.209 347.806 247.162 347.254C248.116 346.702 249.267 346.582 250.312 346.92L255.588 348.62C255.771 348.678 255.919 348.823 255.98 349.004C256.465 350.409 267.856 383.591 266.089 396.756C265.654 399.984 265.102 402.757 264.442 405C263.904 406.831 262.488 408.244 260.657 408.785C260.139 408.938 259.612 409.011 259.088 409.011L259.085 409.016ZM226.218 364.441C227.565 367.103 241.254 393.746 256.312 406.748C257.427 407.712 258.884 408.024 260.306 407.606C261.733 407.185 262.834 406.084 263.254 404.657C263.898 402.472 264.439 399.761 264.863 396.597C266.507 384.357 256.05 353.062 254.91 349.704L249.93 348.099C249.214 347.867 248.428 347.951 247.776 348.327C247.123 348.703 246.658 349.342 246.502 350.077L245.95 352.647C245.906 352.861 245.749 353.034 245.54 353.104C245.331 353.171 245.103 353.126 244.938 352.981L238.595 347.396C238.021 346.892 237.285 346.652 236.527 346.719C235.775 346.786 235.1 347.151 234.632 347.745C232.068 350.994 228.537 356.518 226.218 364.441Z" fill="black"/>
<path d="M260.376 404.37C260.217 404.37 260.058 404.309 259.938 404.189C243.609 387.791 229.939 362.123 229.803 361.866C229.644 361.565 229.758 361.192 230.059 361.033C230.36 360.874 230.733 360.988 230.892 361.289C231.029 361.546 244.615 387.052 260.81 403.32C261.05 403.562 261.05 403.952 260.81 404.192C260.691 404.312 260.532 404.373 260.376 404.373V404.37Z" fill="black"/>
<path d="M253.413 381.846C253.154 381.846 252.912 381.681 252.828 381.422C252.722 381.099 252.898 380.751 253.221 380.642L261.76 377.83C262.084 377.721 262.432 377.9 262.541 378.223C262.647 378.546 262.471 378.895 262.148 379.003L253.609 381.815C253.544 381.838 253.48 381.846 253.416 381.846H253.413Z" fill="black"/>
<path d="M247.798 372.724C247.539 372.724 247.297 372.56 247.213 372.301C247.107 371.977 247.283 371.629 247.606 371.52L258.336 367.986C258.659 367.881 259.007 368.056 259.116 368.379C259.222 368.703 259.046 369.051 258.723 369.16L247.993 372.694C247.929 372.716 247.865 372.724 247.801 372.724H247.798Z" fill="black"/>
<path d="M108.85 147.879C109.949 146.722 188.251 112.894 220.257 105.701C252.262 98.505 264.188 98.4381 275.079 116.729C285.971 135.02 222.617 234.827 222.617 234.827L87.8423 199.697L108.853 147.879H108.85Z" fill="black"/>
<path d="M184.698 186.426C184.614 186.426 184.528 186.409 184.447 186.373C184.135 186.233 183.996 185.868 184.135 185.556C199.19 151.951 224.047 127.941 224.295 127.701C224.541 127.465 224.931 127.473 225.168 127.721C225.405 127.966 225.396 128.359 225.148 128.593C224.9 128.83 200.213 152.684 185.261 186.061C185.158 186.289 184.932 186.426 184.698 186.426Z" fill="white"/>
<path d="M44.7866 192.585C44.7866 192.585 48.3344 228.963 56.2021 236.527C64.0697 244.094 158.473 236.527 158.473 236.527C158.473 236.527 165.975 248.818 170.878 281.668C175.78 314.518 181.248 358.741 189.369 369.53L260.058 354.268C260.058 354.268 236.611 213.551 220.327 194.413C204.042 175.275 85.56 172.271 85.56 172.271L44.7866 192.582V192.585Z" fill="black"/>
<path d="M228.504 212.295C228.247 212.295 228.011 212.136 227.921 211.879C224.959 203.362 222.244 197.621 219.859 194.815C214.343 188.332 189.907 182.427 149.195 177.733C148.858 177.694 148.613 177.388 148.652 177.051C148.691 176.71 149.003 176.471 149.334 176.507C190.949 181.303 214.995 187.195 220.798 194.015C223.284 196.938 226.074 202.81 229.086 211.472C229.198 211.796 229.028 212.147 228.707 212.258C228.64 212.281 228.571 212.292 228.504 212.292V212.295Z" fill="white"/>
<path d="M175.618 73.4868C173.11 71.6529 169.579 72.2911 167.873 74.8886C159.064 88.3162 134.694 125.508 134.407 126.428L146.62 128.15L176.987 80.8081C178.536 78.3918 177.937 75.184 175.618 73.4895V73.4868Z" fill="white"/>
<path d="M146.62 128.766C146.592 128.766 146.561 128.766 146.533 128.761L134.321 127.038C134.143 127.013 133.981 126.91 133.886 126.757C133.789 126.604 133.763 126.417 133.819 126.244C134.101 125.349 152.213 97.6386 167.358 74.5513C168.275 73.1523 169.685 72.2186 171.332 71.9204C172.979 71.6222 174.632 72.0012 175.983 72.9906C178.561 74.8746 179.23 78.4531 177.505 81.1397L147.138 128.482C147.024 128.66 146.826 128.766 146.62 128.766ZM135.394 125.943L146.313 127.481L176.465 80.4709C177.837 78.3333 177.304 75.4822 175.253 73.9828C174.177 73.1969 172.862 72.8931 171.549 73.13C170.239 73.3669 169.119 74.111 168.386 75.223C149.761 103.614 137.743 122.089 135.391 125.938L135.394 125.943Z" fill="black"/>
<path d="M9.60394 185.584C9.60394 185.584 -3.07956 167.856 2.11256 128.148C7.30748 88.4388 20.0133 67.8264 33.3099 63.1164C46.6038 58.4064 101.29 67.007 105.559 133.724L9.60394 185.584Z" fill="white"/>
<path d="M9.60382 186.203C9.41151 186.203 9.222 186.111 9.10216 185.944C8.97396 185.765 -3.66496 167.561 1.50209 128.067C6.23994 91.8555 17.7585 67.9712 33.1036 62.5338C40.2103 60.0172 58.2894 61.2852 74.5263 71.9984C87.7198 80.7049 103.92 98.4718 106.175 133.685C106.192 133.925 106.064 134.153 105.852 134.268L9.89645 186.128C9.80448 186.178 9.70136 186.203 9.60382 186.203ZM41.2722 62.6481C38.0588 62.6481 35.3889 63.0355 33.516 63.6988C26.7158 66.1067 20.3922 72.709 15.2223 82.7895C9.38365 94.1799 5.1781 109.466 2.72557 128.228C-1.93146 163.826 7.94835 181.769 9.81005 184.773L104.918 133.373C102.602 98.9289 86.7583 81.5521 73.8463 73.0323C62.2915 65.4072 49.8449 62.6509 41.2722 62.6509V62.6481Z" fill="black"/>
<path d="M47.8162 157.522C47.4957 157.522 47.2254 157.274 47.2003 156.948L44.5666 119.709C44.5416 119.369 44.798 119.073 45.138 119.048C45.478 119.023 45.7734 119.279 45.7957 119.619L48.4294 156.859C48.4545 157.199 48.1981 157.494 47.8581 157.519C47.8441 157.519 47.8274 157.519 47.8135 157.519L47.8162 157.522Z" fill="black"/>
<path d="M4.98584 175.372C4.98584 175.372 9.5927 208.721 56.202 197.56C102.809 186.398 127.108 143.071 127.108 143.071C127.108 143.071 154.245 137.272 153.322 119.664C153.322 119.664 144.24 122.099 136.514 119.664C128.789 117.228 120.431 119.719 117.214 122.735C95.1778 143.403 24.7845 149.601 4.98584 175.372Z" fill="white"/>
<path d="M38.5937 200.469C29.9206 200.469 22.6327 198.476 16.8107 194.499C6.10875 187.189 4.44214 175.93 4.37526 175.453C4.35296 175.289 4.39755 175.124 4.49788 174.993C15.3922 160.813 41.1911 152.575 66.1401 144.607C87.0758 137.921 106.852 131.606 116.793 122.281C120.433 118.867 129.078 116.67 136.701 119.073C144.167 121.425 153.074 119.089 153.163 119.064C153.344 119.017 153.534 119.053 153.687 119.162C153.838 119.271 153.93 119.443 153.941 119.63C154.838 136.809 130.53 142.921 127.509 143.612C126.531 145.287 120.425 155.412 109.578 166.557C98.6641 177.772 80.5683 192.356 56.3495 198.156C49.9116 199.697 43.9865 200.466 38.5965 200.466L38.5937 200.469ZM5.64054 175.534C5.9499 177.223 8.1293 187.086 17.5242 193.493C26.6654 199.725 39.6304 200.89 56.0568 196.957C101.872 185.985 126.325 143.2 126.567 142.768C126.654 142.614 126.804 142.503 126.977 142.467C127.239 142.411 152.809 136.742 152.726 120.441C150.36 120.973 142.927 122.331 136.327 120.252C128.724 117.855 120.586 120.416 117.635 123.184C107.49 132.698 87.5858 139.055 66.5136 145.783C41.8712 153.653 16.3955 161.789 5.63775 175.534H5.64054Z" fill="black"/>
<path d="M136.726 127.808C135.974 127.808 135.196 127.791 134.382 127.76C134.042 127.746 133.778 127.459 133.792 127.119C133.805 126.779 134.07 126.514 134.433 126.528C148.033 127.077 152.673 122.574 152.718 122.529C152.958 122.289 153.348 122.287 153.59 122.523C153.833 122.763 153.838 123.151 153.601 123.393C153.415 123.583 149.142 127.81 136.726 127.81V127.808Z" fill="black"/>
<path d="M135.313 134.259C135.012 134.259 134.708 134.259 134.396 134.251C134.056 134.245 133.783 133.964 133.791 133.621C133.797 133.281 134.087 133.011 134.421 133.016C146.277 133.234 150.103 129.031 150.14 128.989C150.365 128.733 150.753 128.705 151.012 128.931C151.268 129.154 151.296 129.544 151.07 129.803C150.909 129.99 147.038 134.262 135.316 134.262L135.313 134.259Z" fill="black"/>
<path d="M54.5046 32.2138C54.1535 32.8548 39.246 58.3361 39.246 58.3361L28.9648 65.245C32.7579 68.1267 39.4578 72.4632 48.8276 74.9492C58.3869 77.4826 66.5025 76.967 71.2515 76.3093C70.8391 75.0105 70.1451 73.3188 68.9412 71.5519C67.0432 68.7649 64.7802 67.1067 63.3338 66.2204C66.4022 60.9503 69.4707 55.6829 72.5391 50.4127L54.5046 32.2138Z" fill="white"/>
<path d="M63.3837 77.4718C58.4313 77.4718 53.5095 76.828 48.6685 75.546C41.3639 73.609 34.6083 70.3093 28.5884 65.7387C28.4296 65.6188 28.3404 65.4293 28.3459 65.2286C28.3515 65.0308 28.4546 64.844 28.6191 64.7353L38.7831 57.9045C39.9035 55.9898 53.6321 32.5207 53.9638 31.9188C54.0585 31.7487 54.2258 31.6317 54.4181 31.6038C54.6104 31.576 54.8054 31.6428 54.942 31.7794L72.9765 49.9783C73.1744 50.1762 73.2106 50.4828 73.0713 50.7225L64.1669 66.0146C66.271 67.3969 68.0491 69.1415 69.451 71.2011C70.4794 72.7116 71.282 74.3643 71.8394 76.1173C71.8952 76.2901 71.8701 76.4796 71.7725 76.6329C71.675 76.7862 71.5161 76.8893 71.335 76.9144C68.6818 77.2823 66.0286 77.4662 63.381 77.4662L63.3837 77.4718ZM30.0293 65.2732C35.7426 69.4788 42.1164 72.5333 48.9863 74.3532C56.0122 76.2149 63.2193 76.6998 70.4264 75.794C69.9248 74.4145 69.2559 73.1074 68.4337 71.8979C67.018 69.816 65.1925 68.0825 63.0131 66.7447C62.726 66.5692 62.634 66.1985 62.8041 65.9087L71.7697 50.5106L54.6382 33.2231C52.2414 37.3478 40.3355 57.701 39.7809 58.6486C39.7335 58.7294 39.6694 58.7963 39.5914 58.8493L30.0321 65.2732H30.0293Z" fill="black"/>
<path d="M99.6474 15.9356C92.7748 10.292 84.673 16.1836 76.6494 9.26357C72.9733 6.092 72.6361 3.09879 68.2216 1.36251C65.298 0.214277 60.0975 -0.577226 56.6361 2.06482C52.2271 5.4287 55.4712 10.671 51.8955 22.4292C49.3844 30.687 45.9035 34.2794 47.8572 37.1751C49.8331 40.1042 54.4261 37.9666 56.8256 41.0044C59.9303 44.934 54.2672 51.0849 56.0313 56.6365C57.2437 60.4519 63.0434 65.9004 77.622 67.7231C78.4274 65.3848 80.3616 60.7556 81.6213 56.2296C85.5649 42.0634 83.4161 36.6428 86.9611 34.8117C92.3929 32.008 98.9451 40.6672 102.981 38.053C107.172 35.3385 106.701 21.7269 99.6446 15.9328L99.6474 15.9356Z" fill="black"/>
<path d="M71.165 22.869L72.5389 27.03C72.5389 27.03 67.2019 40.1204 66.246 45.0645C65.2928 50.0086 80.3815 54.1221 80.3815 54.1221L82.7504 52.3663L86.9643 53.4198C86.9643 53.4198 86.8361 39.0112 90.6961 29.4045C90.6961 29.4045 83.5726 20.7621 71.1622 22.869H71.165Z" fill="white"/>
<path d="M71.6921 23.1869C72.2383 24.4439 72.7232 25.5949 73.1245 26.8379C73.1719 26.9828 73.1636 27.1333 73.1106 27.2643C71.9624 30.1014 70.8587 32.9636 69.7997 35.837C68.7657 38.7104 67.715 41.6116 66.9988 44.5268L66.8762 45.0702C66.8288 45.2597 66.8455 45.3684 66.8204 45.5189C66.8455 45.8032 66.8845 46.0931 67.0322 46.3773C67.2942 46.9487 67.7652 47.4837 68.3003 47.9575C69.3844 48.9051 70.6999 49.6604 72.0432 50.332C74.7466 51.6558 77.6422 52.6898 80.5435 53.5287L80.0139 53.629L82.3801 51.8732L82.4191 51.8481C82.564 51.7478 82.7424 51.7255 82.8985 51.7701L87.065 53.0047L86.5327 53.4256C86.5187 51.3688 86.594 49.3315 86.7194 47.2887C86.8476 45.2486 87.0399 43.2085 87.2963 41.1768C87.5694 39.1451 87.9122 37.1218 88.3498 35.1124C88.8152 33.1086 89.381 31.1214 90.1195 29.1789L90.217 29.8004C89.105 28.5546 87.7143 27.4176 86.2568 26.4867C84.7936 25.5447 83.2162 24.7755 81.5635 24.2376C79.9164 23.697 78.2052 23.3151 76.4661 23.2315C75.5994 23.1312 74.7298 23.1897 73.8603 23.2037C73.381 23.1981 73.1106 23.2761 72.765 23.2622C72.4334 23.2622 72.0822 23.2176 71.6893 23.1869H71.6921ZM70.633 22.5515C71.1263 22.4122 71.6642 22.2645 72.2216 22.1558C72.765 22.0526 73.381 21.9579 73.799 21.9718C74.7187 21.9551 75.6384 21.8966 76.5553 21.9997C78.3947 22.0917 80.2146 22.493 81.9593 23.0671C83.7123 23.6384 85.3816 24.4494 86.9256 25.4472C88.4808 26.4505 89.8965 27.5876 91.1702 29.0145C91.3179 29.1789 91.3513 29.4047 91.2817 29.597L91.2677 29.636C90.5292 31.4893 89.9467 33.4151 89.4618 35.3688C89.0019 37.3308 88.6341 39.3179 88.3331 41.3162C88.0488 43.32 87.8286 45.3322 87.6698 47.3528C87.5137 49.3705 87.4078 51.4022 87.3911 53.4172C87.3911 53.6569 87.1932 53.852 86.9535 53.8492C86.9201 53.8492 86.8866 53.8436 86.856 53.838L82.5975 52.9657L83.1158 52.8626L80.7469 54.6184L80.7386 54.624C80.5825 54.7382 80.3874 54.7661 80.2146 54.7187C77.2186 53.852 74.3062 52.8152 71.4914 51.4385C70.0923 50.7361 68.7128 49.9586 67.4809 48.8828C66.8734 48.3393 66.2881 47.7151 65.9035 46.8873C65.7001 46.4832 65.6053 46.0039 65.583 45.5245C65.6053 45.296 65.6165 45.0145 65.6638 44.8306L65.7948 44.2509C66.5445 41.1991 67.598 38.3146 68.6403 35.4134C69.7049 32.5233 70.8114 29.6555 71.9652 26.7989L71.9512 27.2253C71.4356 25.6924 71.0037 24.0676 70.633 22.5515Z" fill="black"/>
<path d="M66.0648 34.4298C66.0648 34.4298 67.3858 24.8622 62.9044 25.1827C58.4229 25.5032 57.2357 36.0714 66.0648 34.4298Z" fill="white"/>
<path d="M64.2953 35.2213C61.9737 35.2213 60.6666 34.2626 59.9476 33.354C58.5262 31.5592 58.6516 29.0342 59.4041 27.323C60.1204 25.6982 61.4135 24.667 62.8628 24.5639C63.8494 24.4942 64.6743 24.8092 65.3209 25.5031C67.5616 27.8971 66.7144 34.2431 66.6781 34.5134C66.6419 34.7782 66.4412 34.9872 66.1793 35.0346C65.4881 35.1628 64.8638 35.2213 64.2981 35.2213H64.2953ZM63.1192 25.7902C63.0634 25.7902 63.0077 25.7902 62.9492 25.7958C61.9486 25.8682 61.0679 26.604 60.5329 27.8191C59.9281 29.1903 59.8138 31.1941 60.9147 32.5848C61.8316 33.7414 63.4118 34.1901 65.5076 33.8919C65.7138 31.9466 65.8253 27.8442 64.4179 26.342C64.0695 25.9685 63.6431 25.7846 63.1192 25.7846V25.7902Z" fill="black"/>
</svg>
