<svg width="100" height="108" viewBox="0 0 100 108" fill="none" xmlns="http://www.w3.org/2000/svg">
<path d="M96.8162 25.0899L56.6392 1.82147C54.9976 0.871112 52.8071 1.37833 51.7453 2.95854L1.29272 78.0814C0.233672 79.6616 0.704679 81.71 2.3462 82.6631L42.5232 105.932C44.1647 106.882 46.3553 106.375 47.4171 104.794L97.8696 29.6716C98.9287 28.0914 98.4577 26.043 96.8162 25.0899Z" fill="white"/>
<path d="M44.3208 107.021C43.5962 107.021 42.8661 106.84 42.2139 106.464L2.03692 83.1954C1.09493 82.6491 0.442757 81.7796 0.205864 80.7484C-0.0338151 79.7144 0.16965 78.6442 0.779997 77.7357L51.2325 2.61289C52.47 0.773485 55.0312 0.17707 56.9486 1.28628L97.1256 24.5547C98.0676 25.1009 98.7197 25.9705 98.9566 27.0017C99.1963 28.0356 98.9928 29.1058 98.3825 30.0144L47.93 105.137C47.1162 106.35 45.7227 107.021 44.3208 107.021ZM54.8305 1.95795C53.8328 1.95795 52.8406 2.4373 52.2581 3.30126L1.80558 78.4241C1.38754 79.0456 1.24821 79.773 1.40985 80.4697C1.5715 81.1664 2.01462 81.7545 2.65841 82.1252L42.8354 105.394C44.201 106.185 46.0265 105.759 46.9072 104.446L97.3597 29.3232C97.7777 28.7017 97.9171 27.9743 97.7554 27.2776C97.5938 26.5808 97.1507 25.9928 96.5097 25.6221L56.3327 2.35368C55.8673 2.08335 55.3489 1.95516 54.8333 1.95516L54.8305 1.95795Z" fill="black"/>
<path d="M65.0752 6.70697L63.9995 8.30948C62.854 10.0123 63.3641 12.2252 65.1366 13.2508L82.0256 23.0331C83.7981 24.0587 86.1615 23.5096 87.3041 21.8068L88.3799 20.2043L65.0724 6.70697H65.0752Z" fill="black"/>
<path d="M74.551 16.6952C73.9072 16.3217 73.7233 15.519 74.1385 14.8975C74.5538 14.2788 75.415 14.0782 76.0587 14.4516C76.7025 14.8251 76.8865 15.6278 76.4712 16.2492C76.056 16.868 75.1948 17.0686 74.551 16.6952Z" fill="white"/>
<path d="M87.5666 36.5163L49.6582 14.5605L51.8766 11.2579L89.785 33.2109L87.5666 36.5163Z" fill="black"/>
<path d="M71.1846 61.524C71.0787 61.524 70.9728 61.4961 70.8752 61.4403L32.9668 39.4874C32.8191 39.401 32.7132 39.2589 32.6742 39.0916C32.6352 38.9244 32.6686 38.7488 32.7634 38.6095L47.5232 16.6314C47.7043 16.3611 48.0639 16.2775 48.3453 16.4419L86.2537 38.3949C86.4014 38.4813 86.5073 38.6234 86.5463 38.7907C86.5854 38.9579 86.5519 39.1334 86.4572 39.2728L71.6973 61.2508C71.5803 61.4264 71.3852 61.524 71.1846 61.524ZM34.1569 38.7488L70.995 60.0831L85.0664 39.1307L48.2283 17.7964L34.1569 38.7488Z" fill="black"/>
<path d="M87.0953 33.9494C86.7999 34.3897 86.1923 34.529 85.7352 34.2643C85.2782 33.9995 85.1472 33.4282 85.4426 32.9906C85.738 32.5503 86.3456 32.411 86.8027 32.6757C87.2597 32.9405 87.3907 33.5118 87.0953 33.9494Z" fill="white"/>
<path d="M60.9653 76.7376C60.8594 76.7376 60.7535 76.7098 60.6559 76.654L22.7476 54.7011C22.5999 54.6147 22.494 54.4725 22.4549 54.3053C22.4159 54.1381 22.4494 53.9625 22.5441 53.8231L31.7467 40.1224C31.9279 39.8521 32.2874 39.7685 32.5688 39.9329L70.4772 61.8859C70.6249 61.9723 70.7309 62.1144 70.7699 62.2816C70.8089 62.4488 70.7754 62.6244 70.6807 62.7637L61.4781 76.4645C61.3611 76.6401 61.166 76.7376 60.9653 76.7376ZM23.9376 53.9625L60.7758 75.2968L69.2872 62.6216L32.449 41.2874L23.9376 53.9625Z" fill="black"/>
<path d="M50.4189 92.4425C50.313 92.4425 50.2071 92.4147 50.1096 92.3589L12.2012 70.4059C12.0535 70.3196 11.9476 70.1774 11.9086 70.0102C11.8695 69.843 11.903 69.6674 11.9978 69.528L21.2003 55.8273C21.3815 55.557 21.741 55.4734 22.0225 55.6378L59.9309 77.5908C60.0786 77.6772 60.1845 77.8193 60.2235 77.9865C60.2625 78.1537 60.2291 78.3293 60.1343 78.4687L50.9317 92.1694C50.8147 92.345 50.6196 92.4425 50.4189 92.4425ZM13.3912 69.6674L50.2294 91.0017L58.7408 78.3265L21.9027 56.9923L13.3912 69.6674Z" fill="black"/>
<path d="M42.9887 103.507C42.8828 103.507 42.7769 103.479 42.6794 103.423L4.771 81.4702C4.62329 81.3838 4.5174 81.2417 4.47839 81.0745C4.43937 80.9073 4.4728 80.7317 4.56755 80.5923L10.6543 71.5291C10.8354 71.2588 11.195 71.1751 11.4765 71.3396L49.3848 93.2925C49.5326 93.3789 49.6384 93.5211 49.6775 93.6883C49.7165 93.8555 49.683 94.0311 49.5883 94.1704L43.5016 103.234C43.3845 103.409 43.1894 103.507 42.9887 103.507ZM5.96104 80.7317L42.7992 102.066L48.1976 94.0283L11.3594 72.694L5.96104 80.7317Z" fill="black"/>
</svg>
