<svg width="384" height="353" viewBox="0 0 384 353" fill="none" xmlns="http://www.w3.org/2000/svg">
  <path d="M40.4034 0.615967H302.618C309.232 0.615967 314.602 5.98646 314.602 12.5999V323.002C314.602 329.615 309.232 334.986 302.618 334.986H40.4034C33.7899 334.986 28.4194 329.615 28.4194 323.002V12.6027C28.4194 5.98925 33.7899 0.618754 40.4034 0.618754V0.615967Z" fill="white" transform="matrix(1, 0, 0, 1, 2.842170943040401e-14, 0)"/>
  <path d="M302.618 335.604H40.4035C33.4555 335.604 27.8008 329.952 27.8008 323.001V12.6026C27.8008 5.65464 33.4528 -0.00012207 40.4035 -0.00012207H302.618C309.566 -0.00012207 315.221 5.65186 315.221 12.6026V323.004C315.221 329.952 309.569 335.607 302.618 335.607V335.604ZM40.4035 1.23451C34.1356 1.23451 29.0354 6.33466 29.0354 12.6026V323.004C29.0354 329.272 34.1356 334.372 40.4035 334.372H302.618C308.886 334.372 313.986 329.272 313.986 323.004V12.6026C313.986 6.33466 308.886 1.23451 302.618 1.23451H40.4035Z" fill="black" transform="matrix(1, 0, 0, 1, 2.842170943040401e-14, 0)"/>
  <path d="M314.602 120.453C314.262 120.453 313.986 120.177 313.986 119.837V82.1263C313.986 81.7863 314.262 81.5104 314.602 81.5104C314.942 81.5104 315.218 81.7863 315.218 82.1263V119.837C315.218 120.177 314.942 120.453 314.602 120.453Z" fill="black" transform="matrix(1, 0, 0, 1, 2.842170943040401e-14, 0)"/>
  <path d="M191.195 17.1736H44.3188V318.428H191.195V17.1736Z" fill="white" transform="matrix(1, 0, 0, 1, 2.842170943040401e-14, 0)"/>
  <path d="M191.195 319.047H44.319C43.979 319.047 43.7031 318.771 43.7031 318.431V17.1734C43.7031 16.8334 43.979 16.5575 44.319 16.5575H191.195C191.535 16.5575 191.811 16.8334 191.811 17.1734V318.428C191.811 318.768 191.535 319.044 191.195 319.044V319.047ZM44.935 317.812H190.576V17.7921H44.935V317.812Z" fill="black" transform="matrix(1, 0, 0, 1, 2.842170943040401e-14, 0)"/>
  <path d="M298.702 17.174H206.336V318.429H298.702V17.174Z" fill="white" transform="matrix(1, 0, 0, 1, 2.842170943040401e-14, 0)"/>
  <path d="M298.702 319.047H206.337C205.997 319.047 205.721 318.771 205.721 318.431V17.1737C205.721 16.8336 205.997 16.5577 206.337 16.5577H298.702C299.042 16.5577 299.318 16.8336 299.318 17.1737V318.428C299.318 318.768 299.042 319.044 298.702 319.044V319.047ZM206.953 317.812H298.084V17.7924H206.953V317.812Z" fill="black" transform="matrix(1, 0, 0, 1, 2.842170943040401e-14, 0)"/>
  <path d="M333.907 338.689H1.5415V351.824H333.907V338.689Z" fill="white" transform="matrix(1, 0, 0, 1, 2.842170943040401e-14, 0)"/>
  <path d="M333.91 352.443H1.5417C1.20169 352.443 0.925781 352.167 0.925781 351.827V338.692C0.925781 338.352 1.20169 338.076 1.5417 338.076H333.907C334.247 338.076 334.523 338.352 334.523 338.692V351.827C334.523 352.167 334.247 352.443 333.907 352.443H333.91ZM2.16041 351.208H333.292V339.308H2.16041V351.208Z" fill="black" transform="matrix(1, 0, 0, 1, 2.842170943040401e-14, 0)"/>
  <path d="M296.506 305.427C295.59 305.12 294.6 304.953 293.555 304.953H291.141V298.136H249.223V322.578C249.223 332.237 257.051 340.069 266.708 340.069H273.656C282.847 340.069 290.375 332.973 291.083 323.96H293.558C298.747 323.96 302.596 319.493 302.596 314.303V314.231C302.596 310.087 300.143 306.645 296.512 305.427H296.506ZM293.204 318.531H291.139V310.385H293.204C295.428 310.385 297.228 312.235 297.228 314.459C297.228 316.683 295.425 318.534 293.204 318.534V318.531Z" fill="white" transform="matrix(1, 0, 0, 1, 2.842170943040401e-14, 0)"/>
  <path d="M273.653 340.688H266.705C256.722 340.688 248.601 332.564 248.601 322.578V298.136C248.601 297.796 248.877 297.52 249.217 297.52H291.136C291.476 297.52 291.752 297.796 291.752 298.136V304.334H293.549C294.639 304.334 295.698 304.504 296.699 304.839C300.651 306.165 303.203 309.85 303.203 314.228V314.301C303.203 319.966 298.872 324.576 293.549 324.576H291.637C290.634 333.653 282.842 340.685 273.648 340.685L273.653 340.688ZM249.839 298.755V322.578C249.839 331.884 257.405 339.453 266.708 339.453H273.656C282.401 339.453 289.784 332.628 290.467 323.916C290.492 323.595 290.76 323.347 291.083 323.347H293.558C298.279 323.347 301.977 319.376 301.977 314.306V314.234C301.977 310.396 299.753 307.169 296.314 306.015C295.442 305.722 294.514 305.575 293.558 305.575H291.144C290.804 305.575 290.528 305.299 290.528 304.959V298.76H249.844L249.839 298.755ZM293.204 319.15H291.139C290.799 319.15 290.523 318.874 290.523 318.534V310.388C290.523 310.048 290.799 309.772 291.139 309.772H293.204C295.765 309.772 297.847 311.876 297.847 314.462C297.847 317.048 295.765 319.153 293.204 319.153V319.15ZM291.757 317.915H293.204C295.082 317.915 296.612 316.366 296.612 314.459C296.612 312.553 295.082 311.004 293.204 311.004H291.757V317.915Z" fill="black" transform="matrix(1, 0, 0, 1, 2.842170943040401e-14, 0)"/>
  <path d="M273.653 340.688H266.705C256.722 340.688 248.601 332.564 248.601 322.578V298.136C248.601 297.796 248.877 297.52 249.217 297.52C249.557 297.52 249.833 297.796 249.833 298.136V322.578C249.833 331.884 257.4 339.453 266.702 339.453H273.65C282.396 339.453 289.779 332.628 290.461 323.916C290.486 323.595 290.754 323.347 291.077 323.347H293.552C298.273 323.347 301.972 319.376 301.972 314.306V314.234C301.972 312.461 301.492 310.775 300.584 309.356C300.4 309.069 300.483 308.688 300.77 308.504C301.057 308.32 301.439 308.403 301.623 308.69C302.66 310.307 303.206 312.224 303.206 314.234V314.306C303.206 319.972 298.875 324.582 293.552 324.582H291.64C290.637 333.659 282.845 340.69 273.65 340.69L273.653 340.688ZM293.031 319.15H291.704C291.052 319.15 290.523 318.62 290.523 317.968V310.951C290.523 310.298 291.052 309.769 291.704 309.769H293.204C294.505 309.769 295.759 310.332 296.64 311.316C297.535 312.313 297.964 313.648 297.816 314.978C297.557 317.355 295.497 319.15 293.028 319.15H293.031ZM291.757 317.915H293.031C294.84 317.915 296.403 316.566 296.59 314.844C296.699 313.86 296.381 312.876 295.72 312.141C295.071 311.419 294.154 311.004 293.201 311.004H291.755V317.915H291.757ZM296.506 306.046C296.442 306.046 296.375 306.034 296.311 306.012C295.439 305.719 294.511 305.572 293.555 305.572H291.707C291.055 305.572 290.525 305.042 290.525 304.39V298.758H256.502C256.162 298.758 255.886 298.482 255.886 298.142C255.886 297.802 256.162 297.526 256.502 297.526H290.576C291.228 297.526 291.757 298.055 291.757 298.707V304.34H293.555C294.645 304.34 295.704 304.51 296.704 304.844C297.027 304.953 297.2 305.301 297.094 305.625C297.008 305.884 296.768 306.046 296.509 306.046H296.506Z" fill="black" transform="matrix(1, 0, 0, 1, 2.842170943040401e-14, 0)"/>
  <path d="M270.229 325.355C274.534 325.343 278.015 321.842 278.003 317.535C277.991 313.229 274.491 309.747 270.186 309.759C265.881 309.771 262.4 313.272 262.412 317.579C262.424 321.886 265.924 325.367 270.229 325.355Z" fill="white" transform="matrix(1, 0, 0, 1, 2.842170943040401e-14, 0)"/>
  <path d="M270.18 326.003C265.54 326.003 261.767 322.227 261.767 317.586C261.767 312.946 265.54 309.17 270.18 309.17C274.821 309.17 278.594 312.946 278.594 317.586C278.594 322.227 274.821 326.003 270.18 326.003ZM270.18 310.407C266.223 310.407 263.001 313.629 263.001 317.589C263.001 321.549 266.22 324.771 270.18 324.771C274.141 324.771 277.36 321.549 277.36 317.589C277.36 313.629 274.141 310.407 270.18 310.407Z" fill="black" transform="matrix(1, 0, 0, 1, 2.842170943040401e-14, 0)"/>
  <path d="M271.732 291.486C271.618 291.486 271.504 291.456 271.401 291.389C271.303 291.327 269.015 289.828 268.449 287.072C268.07 285.218 268.558 283.273 269.904 281.286C273.555 275.893 272.362 273.513 271.097 270.994L270.994 270.787C270.84 270.484 270.966 270.113 271.27 269.96C271.576 269.806 271.944 269.932 272.097 270.236L272.2 270.439C273.505 273.039 274.985 275.988 270.927 281.98C269.778 283.674 269.352 285.302 269.656 286.812C270.11 289.056 272.05 290.341 272.069 290.352C272.354 290.539 272.437 290.92 272.251 291.205C272.133 291.389 271.933 291.486 271.732 291.486Z" fill="black" transform="matrix(1, 0, 0, 1, 2.842170943040401e-14, 0)"/>
  <path d="M 345.028 84.115 L 320.642 84.115 C 317.964 67.003 303.159 53.913 285.295 53.913 C 280.699 53.913 276.313 54.788 272.277 56.365 C 263.183 39.947 245.689 28.827 225.592 28.827 C 196.134 28.827 172.255 52.706 172.255 82.164 C 172.255 82.819 172.281 83.466 172.306 84.115 L 169.828 84.115 C 149.269 84.115 132.602 100.782 132.602 121.341 C 132.602 141.901 149.269 158.567 169.828 158.567 L 345.028 158.567 C 365.588 158.567 382.254 141.901 382.254 121.341 C 382.254 100.782 365.588 84.115 345.028 84.115 Z" fill="white" transform="matrix(1, 0, 0, 1, 2.842170943040401e-14, 0)"/>
  <path d="M345.644 158.896H170.444C149.577 158.896 132.602 141.921 132.602 121.055C132.602 100.189 149.577 83.2134 170.444 83.2134H172.28C172.266 82.7703 172.252 82.3272 172.252 81.8785C172.252 52.1276 196.457 27.9227 226.208 27.9227C245.642 27.9227 263.587 38.4017 273.171 55.3103C277.257 53.7802 281.541 53.0055 285.911 53.0055C294.639 53.0055 303.081 56.1436 309.681 61.8402C316.077 67.3611 320.36 74.9333 321.782 83.2079H345.644C366.51 83.2079 383.485 100.183 383.485 121.049C383.485 141.915 366.51 158.891 345.644 158.891V158.896ZM170.444 84.4453C150.258 84.4453 133.834 100.869 133.834 121.055C133.834 141.241 150.258 157.665 170.444 157.665H345.644C365.83 157.665 382.253 141.241 382.253 121.055C382.253 100.869 365.83 84.4453 345.644 84.4453H321.258C320.954 84.4453 320.695 84.2251 320.647 83.9241C317.955 66.7257 303.346 54.2429 285.911 54.2429C281.513 54.2429 277.21 55.0539 273.118 56.6536C272.828 56.7651 272.502 56.648 272.355 56.3777C263.055 39.5862 245.374 29.1574 226.211 29.1574C197.14 29.1574 173.49 52.8076 173.49 81.8785C173.49 82.4749 173.512 83.0685 173.534 83.6593L173.54 83.8071C173.545 83.9743 173.484 84.1359 173.367 84.2585C173.25 84.3784 173.091 84.4481 172.924 84.4481H170.446L170.444 84.4453Z" fill="black" transform="matrix(1, 0, 0, 1, 2.842170943040401e-14, 0)"/>
  <path d="M 198.699 164.436 C 194.679 164.436 191.415 163.485 191.415 162.317 L 191.415 32.773 C 191.415 31.605 194.679 30.661 198.699 30.661 C 202.732 30.664 205.984 31.612 205.984 32.78 L 205.984 162.324 C 205.984 163.492 202.732 164.44 198.699 164.436 Z" style="fill: rgb(255, 255, 255);" transform="matrix(1, 0, 0, 1, 2.842170943040401e-14, 0)"/>
  <path d="M 191.2 164.914 C 190.868 164.914 190.6 163.876 190.6 162.602 L 190.6 21.28 C 190.6 20.006 190.868 18.976 191.2 18.976 C 191.532 18.98 191.8 20.014 191.8 21.288 L 191.8 162.61 C 191.8 163.884 191.532 164.918 191.2 164.914 Z" fill="black" style="transform-origin: 190.6px 91.946px;"/>
  <path d="M 206.24 163.344 C 205.9 163.344 205.624 162.393 205.624 161.225 L 205.624 31.681 C 205.624 30.513 205.9 29.569 206.24 29.569 C 206.581 29.572 206.856 30.52 206.856 31.688 L 206.856 161.232 C 206.856 162.4 206.581 163.348 206.24 163.344 Z" fill="black" style="" transform="matrix(1, 0, 0, 1, 2.842170943040401e-14, 0)"/>
</svg>